<?xml version="1.0" encoding="UTF-8"?>
<svg xmlns="http://www.w3.org/2000/svg" xmlns:xlink="http://www.w3.org/1999/xlink" width="263.195mm" height="186.131mm" viewBox="141.452576 -371.116821 263.194824 186.131180">
    <rect transform="matrix(1,0,0,-1,273.049988,-278.051239)" style="stroke:#ff0000;stroke-width:0.05mm;fill:none" x="-131.597412" y="-93.065598" width="263.194824" height="186.131195" rx="25.4"/>
    <path transform="matrix(1,0,0,-1,0,0)" style="stroke:none;fill:#0000ff;fill-rule:evenodd" d="M187.614136,358.19577C189.18364,357.833923,191.08078,356.843536,192.455826,355.668182C193.865555,354.463196,195.799362,351.603577,196.552856,349.609802C197.26503,347.72522,198.200073,344.014221,198.308334,342.642548L198.395691,341.535736L195.552887,341.128967C193.989349,340.905273,192.626648,340.770264,192.524689,340.828979C192.422714,340.887695,192.339279,341.194824,192.339279,341.511475C192.339279,342.406616,191.166351,346.236938,190.473587,347.604034C189.048615,350.416077,187.103302,351.696167,184.573746,351.486389C181.243988,351.210266,178.97081,347.882324,177.84465,341.63501C177.256332,338.371338,177.248123,329.590393,177.830399,326.394562C178.707687,321.57959,180.289612,318.462524,182.571274,317.053162C183.572983,316.434418,184.025452,316.312164,185.275757,316.322571C187.011002,316.337006,187.953522,316.757721,189.263657,318.102661C190.770065,319.64917,192.339279,323.290466,192.339279,325.239594C192.339279,325.682739,192.437897,326.106262,192.558441,326.180786C192.67897,326.255249,194.064941,326.133087,195.638382,325.909271L198.499176,325.502319L198.36441,324.367004C197.426453,316.465454,193.091141,310.480774,187.444901,309.293213C179.090714,307.536072,173.205353,313.472656,170.930939,325.950928C170.583542,327.856873,170.480377,329.668213,170.480377,333.861328C170.480377,340.157532,170.821136,342.636169,172.285233,346.989441C174.333847,353.080688,177.333038,356.597107,181.659653,357.980469C183.229462,358.482422,185.944931,358.580597,187.614136,358.19577z"/>
    <path transform="matrix(1,0,0,-1,0,0)" style="stroke:none;fill:#0000ff;fill-rule:evenodd" d="M326.50592,358.106812C328.782715,357.500671,330.095642,356.701843,332.054596,354.730774C333.669495,353.105896,334.161133,352.395966,335.320831,350.014099C337.95105,344.612061,338.822021,339.864258,338.60141,332.13092C338.506592,328.805481,338.323547,326.764496,337.97464,325.140778C336.043518,316.154114,331.748901,310.528198,325.877197,309.293213C319.221069,307.893219,313.670044,311.532654,310.498718,319.375793C307.796509,326.058838,307.233398,336.251678,309.14917,343.803894C311.082703,351.426086,315.226196,356.671112,320.416931,358.067078C322.131165,358.528076,324.856628,358.545868,326.50592,358.106812zM321.173401,351.222473C319.845764,350.797607,318.009827,348.958191,317.181793,347.223267C315.309326,343.299805,314.529297,335.906494,315.215271,328.583435C316.088409,319.262268,319.814972,314.636475,325.160767,316.238098C326.499146,316.639099,328.775574,318.786621,329.604584,320.430389C332.175293,325.527374,332.473572,338.801544,330.169312,345.561096C329.829651,346.557556,329.32489,347.739929,329.047607,348.188538C328.26532,349.454346,326.472839,350.976715,325.420837,351.268799C324.245972,351.595032,322.270386,351.573486,321.173401,351.222473z"/>
    <path transform="matrix(1,0,0,-1,0,0)" style="stroke:none;fill:#0000ff;fill-rule:evenodd" d="M220.248016,356.789185C220.380737,356.279327,223.058685,345.683685,226.199005,333.243317C229.339325,320.802948,231.967896,310.42981,232.040283,310.191895C232.161255,309.794189,231.892181,309.759277,228.706039,309.759277L225.240189,309.759277L225.021072,310.562683C224.900543,311.004517,224.258179,313.564728,223.593552,316.251984L222.385162,321.137878L215.348724,321.072388L208.312317,321.006897L206.924454,315.444885L205.536606,309.882874L202.739899,309.812683C200.545975,309.75766,199.96785,309.810913,200.057648,310.059906C200.120621,310.234436,202.830963,321.028534,206.080627,334.046722L211.989105,357.716187L215.997894,357.716187L220.006683,357.716187L220.248016,356.789185zM212.572708,338.742432L209.96257,328.17572L215.153931,328.108887C218.009186,328.072144,220.39711,328.093872,220.460434,328.157196C220.591278,328.288055,215.565918,348.84137,215.333771,349.124847C215.250748,349.226196,214.00827,344.554138,212.572708,338.742432z"/>
    <path transform="matrix(1,0,0,-1,0,0)" style="stroke:none;fill:#0000ff;fill-rule:evenodd" d="M242.832489,340.350342C242.914246,325.731384,242.988953,322.789001,243.304794,321.748505C244.370667,318.237122,246.417542,316.594055,249.713684,316.604004C252.75769,316.61319,254.873749,318.318604,255.790253,321.501282C256.172699,322.829468,256.226471,324.799866,256.304504,340.350342L256.391663,357.716187L258.861511,357.716187L261.331329,357.716187L261.242157,338.990723C261.161072,321.962646,261.112762,320.108459,260.709076,318.534912C260.080261,316.083862,258.951263,314.062378,257.293182,312.418701C254.986176,310.131744,252.203857,309.014252,248.834473,309.021301C242.700241,309.03421,238.796982,312.179932,237.029999,318.534912C236.487732,320.485107,236.479004,320.770203,236.398941,339.114319L236.317749,357.716187L239.526581,357.716187L242.735382,357.716187L242.832489,340.350342z"/>
    <path transform="matrix(1,0,0,-1,0,0)" style="stroke:none;fill:#0000ff;fill-rule:evenodd" d="M291.219482,354.008179L291.219482,350.300171L286.399109,350.300171L281.578674,350.300171L281.578674,330.029724L281.578674,309.759277L278.117859,309.759277L274.657043,309.759277L274.657043,330.029724L274.657043,350.300171L269.83667,350.300171L265.016235,350.300171L265.016235,354.008179L265.016235,357.716187L278.117859,357.716187L291.219482,357.716187L291.219482,354.008179z"/>
    <path transform="matrix(1,0,0,-1,0,0)" style="stroke:none;fill:#0000ff;fill-rule:evenodd" d="M301.849121,333.737732L301.849121,309.759277L298.635498,309.759277L295.421906,309.759277L295.421906,333.737732L295.421906,357.716187L298.635498,357.716187L301.849121,357.716187L301.849121,333.737732z"/>
    <path transform="matrix(1,0,0,-1,0,0)" style="stroke:none;fill:#0000ff;fill-rule:evenodd" d="M359.570435,341.134338L366.98645,324.557068L367.049988,341.136597L367.113525,357.716187L369.707397,357.716187L372.30127,357.716187L372.30127,333.737732L372.30127,309.759277L369.130676,309.759277L365.960114,309.759277L358.068481,327.372314L350.176819,344.985352L350.113403,327.372314L350.049927,309.759277L347.455994,309.759277L344.862,309.759277L344.862,333.737732L344.862,357.716187L348.50824,357.713898L352.154419,357.711609L359.570435,341.134338z"/>
    <path transform="matrix(1,0,0,-1,0,0)" style="stroke:none;fill:#0000ff;fill-rule:evenodd" d="M268.616425,285.992676C265.790863,285.566528,264.247345,282.902649,265.408325,280.456055C265.935303,279.345551,266.530457,279.000153,269.252991,278.224731C271.836395,277.488922,272.434021,277.101013,272.428467,276.163483C272.421143,274.921875,271.602234,274.409607,269.624664,274.409607C268.525543,274.409607,268.123291,274.531189,267.507202,275.049561C267.088898,275.40155,266.746643,275.833038,266.746643,276.008392C266.746643,276.258545,266.493561,276.274231,265.572449,276.081146C264.926636,275.945801,264.362244,275.802765,264.318207,275.763306C264.159637,275.621124,264.981812,274.274292,265.552338,273.741577C266.521637,272.836548,267.830353,272.43158,269.766907,272.437439C273.823181,272.449646,276.020416,274.947083,274.755737,278.107849C274.26004,279.34668,273.384644,279.891418,270.761993,280.593048C268.717926,281.139862,267.488251,281.829193,267.488251,282.428223C267.488251,282.603943,267.718811,283.040833,268.00058,283.399078C268.432129,283.947693,268.708008,284.050415,269.75,284.050415C270.770203,284.050415,271.106079,283.931244,271.665802,283.370605C272.285675,282.749756,272.434052,282.70993,273.377197,282.911346C274.109558,283.067749,274.409851,283.25705,274.409851,283.562378C274.409851,284.252655,272.582336,285.733521,271.52002,285.904083C271.002045,285.987244,270.411377,286.082611,270.207458,286.115997C270.00351,286.149414,269.287567,286.093903,268.616425,285.992676z"/>
    <path transform="matrix(1,0,0,-1,0,0)" style="stroke:none;fill:#0000ff;fill-rule:evenodd" d="M243.621338,285.714966C243.555267,285.542786,243.530945,282.511475,243.567291,278.97876L243.633392,272.555603L247.774002,272.487823L251.914612,272.420044L251.914612,273.538422L251.914612,274.656799L249.071808,274.656799L246.229004,274.656799L246.229004,280.342407L246.229004,286.028015L244.985245,286.028015C244.209671,286.028015,243.696259,285.910187,243.621338,285.714966z"/>
    <path transform="matrix(1,0,0,-1,0,0)" style="stroke:none;fill:#0000ff;fill-rule:evenodd" d="M254.426483,279.351257C252.059296,272.254974,252.06546,272.303955,253.562332,272.475342C254.17366,272.545349,254.329895,272.744751,254.787476,274.038788L255.311951,275.522003L257.889191,275.591644L260.4664,275.661316L260.961975,274.108459L261.45755,272.555603L262.742493,272.480865C263.449219,272.439758,264.027435,272.496979,264.027435,272.608002C264.027435,272.719025,263.044983,275.756134,261.844238,279.357117L259.661011,285.904419L258.161072,285.977356L256.661163,286.050323L254.426483,279.351257zM258.012238,277.673584C257.07309,277.633301,256.240601,277.664429,256.162292,277.742737C256.083984,277.821045,256.334534,278.855164,256.719055,280.040771C257.951233,283.839905,257.78125,283.795288,258.808685,280.5896L259.719788,277.746796L258.012238,277.673584z"/>
    <path transform="matrix(1,0,0,-1,0,0)" style="stroke:none;fill:#0000ff;fill-rule:evenodd" d="M277.129059,279.224304L277.129059,272.420593L281.516876,272.488098L285.904694,272.555603L285.980713,273.606201L286.056702,274.656799L282.828888,274.656799L279.601074,274.656799L279.601074,276.510803L279.601074,278.364807L282.073059,278.364807L284.545105,278.364807L284.545105,279.353607L284.545105,280.342407L282.073059,280.342407L279.601074,280.342407L279.601074,282.072815L279.601074,283.803223L282.691101,283.803223L285.781067,283.803223L285.781067,284.915619L285.781067,286.028015L281.455078,286.028015L277.129059,286.028015L277.129059,279.224304z"/>
    <path transform="matrix(1,0,0,-1,0,0)" style="stroke:none;fill:#0000ff;fill-rule:evenodd" d="M288.00589,279.242859L288.00589,272.404907L289.180115,272.480255L290.354309,272.555603L290.424286,275.347717L290.494293,278.139832L292.129211,278.066895L293.76413,277.994019L294.78717,275.27478L295.810211,272.555603L297.099243,272.480865C297.808228,272.439758,298.388306,272.467041,298.388306,272.541412C298.388306,272.615814,297.874146,273.961487,297.245758,275.531799C296.617371,277.102112,296.144592,278.415619,296.19516,278.450684C296.245728,278.485748,296.590698,278.704285,296.961761,278.93634C298.019775,279.597992,298.458466,280.688324,298.33783,282.356262C298.258789,283.448792,298.088196,283.952118,297.631165,284.441315C296.44281,285.713348,295.816833,285.878143,291.775696,285.983032L288.00589,286.080841L288.00589,279.242859zM294.582275,283.793518C296.001984,283.253723,296.356079,281.748505,295.30954,280.701965C294.76001,280.152435,294.503601,280.095215,292.590332,280.095215L290.477905,280.095215L290.477905,282.072815L290.477905,284.050415L292.1922,284.050415C293.135071,284.050415,294.210602,283.934814,294.582275,283.793518z"/>
    <path transform="matrix(1,0,0,-1,0,0)" style="stroke:none;fill:#0000ff;fill-rule:evenodd" d="M305.804321,279.240417L305.804321,272.432007L306.793152,272.432007L307.781921,272.432007L307.807343,278.179413L307.832733,283.926819L309.712891,278.167969C311.54245,272.564209,311.609985,272.411072,312.21991,272.482361C312.808594,272.551147,312.95224,272.889008,314.578583,278.031677L316.310364,283.507751L316.43396,278.031677L316.557556,272.555603L317.73175,272.480255L318.905945,272.404907L318.905945,279.216461L318.905945,286.028015L317.062042,286.028015L315.21814,286.028015L313.966003,282.134613C313.277283,279.993225,312.648865,278.074341,312.569489,277.870392C312.490112,277.666443,311.797577,279.390686,311.030548,281.702026L309.635925,285.904419L307.720154,285.976624L305.804321,286.048828L305.804321,279.240417z"/>
    <path transform="matrix(1,0,0,-1,0,0)" style="stroke:none;fill:#0000ff;fill-rule:evenodd" d="M324.960388,285.777618C324.70282,285.360809,320.636353,273.105957,320.636353,272.74646C320.636353,272.545471,320.985931,272.432007,321.605011,272.432007L322.573669,272.432007L323.108368,274.038788L323.643066,275.645599L326.198364,275.645599L328.753662,275.645599L329.288391,274.038788L329.82309,272.432007L331.03894,272.432007C332.039001,272.432007,332.251556,272.508759,332.236633,272.864594C332.226624,273.102539,331.253265,276.13382,330.073608,279.6008L327.928772,285.904419L326.529175,285.977905C325.69455,286.021729,325.06131,285.940887,324.960388,285.777618zM327.049194,280.844513C327.470276,279.489136,327.880127,278.2099,327.960022,278.001709C328.082581,277.682281,327.811768,277.623199,326.224823,277.623199C325.190582,277.623199,324.34436,277.706421,324.34436,277.808136C324.34436,278.091522,326.104065,283.308807,326.199615,283.308807C326.245789,283.308807,326.628113,282.19989,327.049194,280.844513z"/>
    <path transform="matrix(1,0,0,-1,0,0)" style="stroke:none;fill:#0000ff;fill-rule:evenodd" d="M333.985168,279.256409L333.985168,272.432007L335.221191,272.432007L336.457214,272.432007L336.457214,275.286072L336.457214,278.140198L338.119873,278.067108L339.782501,277.994019L340.867432,275.213013L341.952332,272.432007L343.159973,272.432007C343.824158,272.432007,344.367615,272.544495,344.367615,272.682007C344.367615,272.819519,343.865326,274.181641,343.251404,275.708954C342.452087,277.697479,342.223999,278.515045,342.447998,278.588654C342.620056,278.645203,343.112366,279.041809,343.542053,279.470032C345.232727,281.154999,344.689941,284.28244,342.513611,285.395416C341.675293,285.824127,340.951111,285.914764,337.755005,285.990967L333.985168,286.080841L333.985168,279.256409zM340.62793,283.777222C342.046875,283.282562,342.391541,281.51001,341.244263,280.607544C340.703217,280.181976,340.242737,280.095215,338.525055,280.095215L336.457214,280.095215L336.457214,282.072815L336.457214,284.050415L338.150696,284.050415C339.082153,284.050415,340.196899,283.92749,340.62793,283.777222z"/>
    <path transform="matrix(1,0,0,-1,0,0)" style="stroke:none;fill:#0000ff;fill-rule:evenodd" d="M346.897461,279.291809L346.963196,272.555603L348.137421,272.480255L349.311646,272.404907L349.311646,274.175598C349.311646,275.934143,349.320313,275.957214,350.577759,277.537445C351.274109,278.412567,351.893555,279.078888,351.954315,279.018127C352.015076,278.957367,352.657043,277.478424,353.380859,275.731628L354.69696,272.555603L355.740601,272.47821C356.314575,272.435638,356.929382,272.456512,357.106812,272.524597C357.34198,272.614838,356.926575,273.850189,355.575256,277.079346L353.721008,281.510315L355.224304,283.612C356.051147,284.767914,356.727661,285.784393,356.727661,285.87085C356.727661,285.957275,356.224792,286.028015,355.610229,286.028015L354.492767,286.028015L352.334808,283.110382C351.147919,281.505646,349.987976,279.920471,349.757202,279.587769C349.353577,279.00592,349.337067,279.117371,349.324585,282.505432L349.311646,286.028015L348.071655,286.028015L346.831665,286.028015L346.897461,279.291809z"/>
    <path transform="matrix(1,0,0,-1,0,0)" style="stroke:none;fill:#0000ff;fill-rule:evenodd" d="M359.199646,279.230011L359.199646,272.432007L363.525635,272.432007L367.851685,272.432007L367.851685,273.544403L367.851685,274.656799L364.761658,274.656799L361.671631,274.656799L361.671631,276.510803L361.671631,278.364807L364.143677,278.364807L366.615662,278.364807L366.615662,279.353607L366.615662,280.342407L364.143677,280.342407L361.671631,280.342407L361.671631,282.072815L361.671631,283.803223L364.761658,283.803223L367.851685,283.803223L367.851685,284.915619L367.851685,286.028015L363.525635,286.028015L359.199646,286.028015L359.199646,279.230011z"/>
    <path transform="matrix(1,0,0,-1,0,0)" style="stroke:none;fill:#0000ff;fill-rule:evenodd" d="M370.076477,279.242859L370.076477,272.404907L371.250671,272.480255L372.424866,272.555603L372.494781,275.336609L372.564667,278.117615L374.141754,278.117615L375.718872,278.117615L376.389282,276.325409C377.867981,272.372498,377.827393,272.432007,379.044189,272.432007C379.640991,272.432007,380.191528,272.494263,380.267639,272.570343C380.343719,272.646423,379.917297,273.924438,379.320038,275.410339C378.722778,276.89624,378.23407,278.2005,378.23407,278.308685C378.23407,278.41687,378.554321,278.69458,378.94577,278.925812C380.448792,279.81366,380.950073,282.506805,379.901855,284.062317C378.833496,285.647644,378.063873,285.892883,373.846283,285.992126L370.076477,286.080841L370.076477,279.242859zM377.413116,283.206665C377.894043,282.647552,377.999634,282.315948,377.885376,281.72348C377.63504,280.425598,376.972961,280.095215,374.622314,280.095215L372.548462,280.095215L372.548462,282.098175L372.548462,284.101135L374.671082,284.013977C376.659241,283.932312,376.832947,283.881195,377.413116,283.206665z"/>
    <path transform="matrix(1,0,0,-1,0,0)" style="stroke:none;fill:#0000ff;fill-rule:evenodd" d="M199.455933,277.190613C199.385696,275.06366,199.373734,275.026337,198.738739,274.952667C198.163742,274.885925,198.031281,275.029785,197.529846,276.265198C197.133896,277.240784,196.889069,277.575073,196.7052,277.391205C196.521332,277.207336,196.579681,276.751587,196.901703,275.856049C197.349823,274.609863,197.349548,274.574829,196.888885,274.230316C196.456055,273.906586,196.305099,274.002045,195.016891,275.414093C194.010239,276.517517,193.499542,276.905426,193.203217,276.791718C192.86792,276.663055,193.070251,276.32843,194.284897,275.002869L195.779022,273.372284L195.257767,272.667236C194.742279,271.970001,194.726669,271.966461,193.846893,272.347565C192.401581,272.973663,192.092087,273.019806,192.092087,272.609253C192.092087,272.38327,192.585571,272.057007,193.334869,271.787537C194.182434,271.482758,194.536179,271.232605,194.447266,271.000916C194.375549,270.814026,194.316895,270.507568,194.316895,270.319855C194.316895,270.05957,193.77887,269.96167,192.050278,269.907471C190.509705,269.859161,189.75087,269.737427,189.681274,269.527374C189.604187,269.294739,190.157104,269.218384,191.919067,269.218384C194.206924,269.218384,194.261841,269.204834,194.375153,268.612061C194.47757,268.076355,194.35141,267.955566,193.291565,267.574432C192.631851,267.337219,192.092087,267.060425,192.092087,266.959351C192.092087,266.542633,192.617676,266.505585,193.470993,266.862122C194.65332,267.35614,194.681793,267.351654,195.178619,266.593384L195.602814,265.945984L194.166489,264.494507C193.037048,263.353149,192.794525,262.978638,193.031448,262.74173C193.268356,262.504822,193.64035,262.744873,194.772537,263.865234C196.117798,265.196442,196.254211,265.270935,196.849838,264.999542L197.487335,264.709076L197.014511,263.606018C196.452591,262.295105,196.431198,262.049561,196.878906,262.049561C197.064377,262.049561,197.407303,262.55014,197.640961,263.161987C198.0103,264.129089,198.159973,264.274384,198.786942,264.274384L199.508102,264.274384L199.508102,261.802368C199.508102,259.769836,199.57402,259.330353,199.878906,259.330353C200.183777,259.330353,200.249695,259.769836,200.249695,261.802368C200.249695,263.161987,200.351837,264.274384,200.476685,264.274384C200.601532,264.274384,200.878632,264.341522,201.092499,264.423584C201.378937,264.533508,201.609756,264.273163,201.969131,263.434784C202.237427,262.808868,202.572128,262.296753,202.712921,262.296753C203.071564,262.296753,203.031799,262.827454,202.594788,263.873383C201.985352,265.332001,202.339386,264.907959,203.653152,262.605774C204.332047,261.416107,206.738846,257.230103,209.001602,253.303528C211.982162,248.131332,212.944122,246.276718,212.492996,246.572296C211.494293,247.226669,210.810974,246.877808,210.049225,245.324615C209.560608,244.328369,209.297394,244.022934,209.078476,244.198196C207.684647,245.314026,202.042358,245.655258,199.260895,244.791916C196.811096,244.031525,195.759491,243.919098,195.182098,244.355835C194.910172,244.561523,194.312469,244.733337,193.853851,244.737671C193.395233,244.742004,191.056473,245.458389,188.656616,246.329651C186.25676,247.200928,184.017838,247.92691,183.681244,247.942963C183.344666,247.959015,182.290588,248.029572,181.338867,248.099731C179.675781,248.222351,179.547028,248.190842,178.029572,247.289825C176.68074,246.488922,176.384155,246.181122,175.993973,245.177277L175.537247,244.002258L176.336853,243.66423C177.052643,243.361633,177.220596,243.37677,177.93924,243.808441C178.478027,244.132111,178.968506,244.240936,179.430771,244.139404C179.811203,244.055847,180.586105,244.15274,181.161789,244.355865C181.735046,244.558121,182.204071,244.617859,182.204071,244.488602C182.204071,244.35936,184.343994,243.182495,186.959473,241.873398L191.71489,239.493179L190.519958,238.411346C189.823929,237.781189,189.083099,237.329514,188.745544,237.329514C188.426819,237.329514,188.08815,237.203461,187.99292,237.049377C187.778137,236.701843,183.817902,236.93924,181.074753,237.464096C180.040436,237.662003,178.268784,237.823914,177.137756,237.823914C173.667953,237.823914,172.901321,237.351822,165.853897,230.875305L159.882339,225.387497L159.396255,226.352692C157.711624,229.697815,155.506409,228.869324,155.506409,224.891281C155.506409,223.456375,155.588745,223.202332,156.396927,222.143906C157.190994,221.103943,157.271027,220.865814,157.135818,219.945343C156.992889,218.972412,157.034088,218.879257,157.852661,218.324615C158.537384,217.860672,158.916992,217.767944,159.646774,217.886383C160.155869,217.968994,160.710068,218.224869,160.878342,218.454987C161.046616,218.68512,161.480499,219.067719,161.842545,219.305206C162.36554,219.6483,162.594894,219.678253,162.95874,219.451019C163.362595,219.198807,163.964188,219.710663,168.051773,223.784378C172.625549,228.342636,172.718475,228.417969,175.078629,229.481934C176.87088,230.289856,177.691895,230.534271,178.354034,230.45697C178.840027,230.400238,179.237656,230.217804,179.237656,230.051559C179.237656,229.88533,178.208679,228.884949,176.95105,227.828491L174.664444,225.907684L172.750519,219.073166C171.697845,215.314194,170.883301,211.960556,170.940399,211.620667C171.04393,211.004318,171.039429,211.002838,169.269913,211.069565C167.873825,211.122208,167.377792,211.043167,166.94281,210.698761C166.442383,210.302536,166.416412,210.175232,166.668732,209.355438C166.915482,208.553696,167.145569,208.36232,168.674881,207.686844C170.153305,207.033829,170.698837,206.923843,172.459412,206.923843C173.59082,206.923843,175.090225,206.800812,175.791428,206.650421C177.450897,206.29454,177.865311,206.652451,177.908524,208.478821C177.925278,209.187134,178.059647,210.656586,178.207123,211.744263C178.559555,214.343597,180.837158,222.966919,181.291199,223.420959C181.825256,223.955017,186.466904,224.969482,188.376404,224.969482C190.729904,224.969482,193.081497,225.876343,194.613632,227.374786C195.480621,228.222702,195.857132,228.446045,196.096832,228.254593C196.708191,227.766312,198.11496,227.732819,199.013702,228.185135C199.489563,228.424637,200.601959,228.818069,201.485703,229.059464C202.369446,229.300842,203.70433,229.797195,204.452118,230.16246C205.19989,230.52774,206.387512,231.02951,207.091263,231.277527C208.210709,231.672028,208.434174,231.684494,208.877121,231.377167C209.155579,231.183975,210.10022,229.564743,210.976318,227.77887L212.569229,224.531845L211.75325,221.296082C211.066788,218.573898,210.991531,218.015289,211.279099,217.776627C211.774246,217.365692,211.701385,217.132858,211.024506,216.962982C210.696457,216.880646,210.019547,216.25676,209.520233,215.576569C208.865372,214.684479,208.446075,214.339874,208.015472,214.339874C207.526306,214.339874,207.418518,214.214752,207.418518,213.646927C207.418518,213.007675,207.550995,212.911316,209.128067,212.403381L210.837616,211.852783L212.22084,212.531174C213.565857,213.190826,213.618988,213.25589,214.144348,214.887115C214.536758,216.105484,214.801849,216.564667,215.112854,216.564667C215.423279,216.564667,215.650299,216.955597,215.938263,217.986069C216.156708,218.767853,216.683868,220.40863,217.109711,221.632278C217.704391,223.34111,217.8806,224.259735,217.869522,225.593262C217.855347,227.298767,217.823883,227.381104,216.088669,230.254272C214.899765,232.22287,214.207214,233.672241,213.970383,234.687485C213.776855,235.517105,213.659286,236.236664,213.709137,236.28653C213.759003,236.33638,214.138321,236.202103,214.552094,235.988144C216.952515,234.746826,219.635345,236.413712,220.247864,239.527039L220.537674,241.000168L219.521072,242.661102C218.732178,243.950012,218.577942,244.368607,218.83252,244.529999C219.012939,244.644379,219.282349,244.739655,219.431229,244.741745C219.875534,244.747955,220.4384,245.523193,221.116608,247.063049L221.756287,248.515381L221.071564,248.378418C220.405334,248.245178,220.389343,248.2677,220.479462,249.212708C220.585327,250.322815,220.423035,250.417023,219.764587,249.627747L219.300598,249.071533L219.292358,250.107544C219.282898,251.299652,218.87944,251.739807,218.646576,250.812042C218.448425,250.022461,218.048141,249.991028,218.048141,250.765045C218.048141,251.084671,217.927094,251.724304,217.779175,252.186462C217.631226,252.648621,217.456329,253.193604,217.390488,253.397552C217.217865,253.932266,216.584961,252.728333,216.5737,251.843842C216.566025,251.240631,216.505707,251.187042,216.086792,251.411255C215.283356,251.841248,215.068817,251.733307,215.335052,251.033051C215.467651,250.684296,215.576141,250.226547,215.576141,250.015808C215.576141,249.675568,215.506943,249.678024,214.95813,250.037613C214.252991,250.499634,214.146454,250.23114,214.581207,249.087631C215.096436,247.732529,213.71637,248.699799,212.586624,250.485626C212.132523,251.203445,209.774277,254.835815,207.346085,258.557556C204.749725,262.537048,203.022278,265.415436,203.152328,265.545471C203.282379,265.675537,204.068695,265.046509,205.061279,264.018341C206.181778,262.857727,206.831848,262.352814,206.99527,262.516235C207.241028,262.762024,205.999649,264.43457,204.610077,265.729889C204.112854,266.19339,204.029068,266.417816,204.220062,266.774689C204.455429,267.214478,204.502716,267.213623,205.683762,266.748108C206.481293,266.433716,206.959091,266.355774,207.062531,266.523163C207.267838,266.855347,207.244354,266.873871,205.872513,267.461914C204.826859,267.910156,204.728882,268.019409,204.916473,268.528046C205.110626,269.054443,205.28627,269.099854,207.384415,269.165863C209.169373,269.222015,209.643326,269.312805,209.643326,269.59845C209.643326,269.89032,209.190796,269.959991,207.294922,269.959991C204.776169,269.959991,204.800766,269.944977,204.968109,271.381378C204.979996,271.483368,205.508041,271.770386,206.141571,272.019226C207.513245,272.558044,207.582153,272.614441,207.261246,272.935364C207.09549,273.101105,206.581848,273.003967,205.711365,272.642212C204.613846,272.186096,204.375137,272.156219,204.191238,272.451965C204.031662,272.708588,204.439438,273.272797,205.709808,274.553101C207.116501,275.970825,207.382233,276.356781,207.10817,276.584229C206.840332,276.806519,206.439651,276.531921,205.185501,275.26651C204.314133,274.387329,203.495499,273.667999,203.366318,273.667999C203.237137,273.667999,202.934204,273.846466,202.693161,274.064636C202.273926,274.444031,202.275436,274.513428,202.727966,275.661499C203.037445,276.446655,203.112488,276.916473,202.944931,277.02002C202.613358,277.224945,202.593353,277.199829,202.017334,275.856079C201.585266,274.848053,201.455536,274.73111,200.889404,274.839355C200.258453,274.959961,200.249695,274.991669,200.249695,277.157623C200.249695,278.918793,200.178192,279.353607,199.888519,279.353607C199.604721,279.353607,199.512054,278.890259,199.455933,277.190613zM217.22287,248.39328C217.292114,248.564072,217.478317,248.621399,217.636658,248.52066C217.794983,248.419922,218.035782,248.333435,218.171738,248.32843C218.307709,248.323441,218.383087,247.991302,218.339233,247.590332L218.259537,246.861313L218.813751,247.348419C219.365723,247.833557,219.367188,247.833527,219.174408,247.341141C218.743164,246.239655,218.703537,245.899078,219.03006,246.100891C219.620331,246.465698,219.154144,245.659302,218.486664,245.16098C217.367462,244.325348,216.447968,244.875458,215.93808,246.68573C215.80011,247.175491,215.847961,247.243042,216.243805,247.117401C216.657257,246.986176,216.702362,247.078827,216.623062,247.896393C216.551712,248.631821,216.591537,248.747406,216.815002,248.453537C217.028931,248.172226,217.127365,248.157684,217.22287,248.39328z"/>
    <path transform="matrix(1,0,0,-1,0,0)" style="stroke:none;fill:#0000ff;fill-rule:evenodd" d="M269.032898,261.415894C267.617706,260.710663,266.434235,259.191711,265.974884,257.490997C265.825806,256.939087,265.750732,255.587799,265.808044,254.488068C265.894165,252.835098,266.042542,252.256744,266.664093,251.150864C267.611786,249.464722,268.94809,248.491425,270.579834,248.298767C274.019775,247.892639,276.681488,250.310852,277.041809,254.169586C277.45755,258.621552,275.022095,262.049561,271.443451,262.049561C270.716583,262.049561,269.844452,261.820313,269.032898,261.415894zM273.350403,259.218109C274.149963,258.288574,274.47821,256.752838,274.35672,254.509949C274.225983,252.096115,273.730042,251.029419,272.499481,250.515259C270.63269,249.73526,268.914795,250.845749,268.5849,253.045685C268.49176,253.666641,268.466919,255.061447,268.529663,256.145264C268.651794,258.254883,269.072113,259.15094,270.231293,259.772644C271.13092,260.255188,272.697998,259.976563,273.350403,259.218109z"/>
    <path transform="matrix(1,0,0,-1,0,0)" style="stroke:none;fill:#0000ff;fill-rule:evenodd" d="M300.365906,261.668854C299.162231,261.128845,298.207428,260.162262,297.445435,258.712372C296.875671,257.628204,296.796173,257.187866,296.798401,255.12796C296.80127,252.547546,297.282806,251.116913,298.595184,249.790009C300.929871,247.429443,305.04361,247.835846,306.796722,250.60022C307.824188,252.220367,308.101013,253.424805,307.97995,255.748444C307.785065,259.488953,305.830505,261.827301,302.771057,261.980103C301.755554,262.030823,300.936462,261.924805,300.365906,261.668854zM304.185333,259.341797C304.966766,258.607697,305.309937,257.254089,305.309937,254.905945C305.309937,252.490067,304.903931,251.370056,303.779785,250.684692C302.801483,250.088226,302.075531,250.054169,301.099426,250.558929C299.866943,251.196259,299.50354,252.207642,299.502045,255.004364C299.500519,257.854645,299.835022,258.910583,300.964233,259.619781C301.913574,260.216034,303.390442,260.088593,304.185333,259.341797z"/>
    <path transform="matrix(1,0,0,-1,0,0)" style="stroke:none;fill:#0000ff;fill-rule:evenodd" d="M338.356934,261.798218C334.013062,260.494354,332.869141,252.734375,336.545044,249.506897C339.040955,247.31546,342.857605,247.98616,344.661255,250.933197C345.959351,253.054169,346.050903,256.765198,344.862152,259.075317C343.64032,261.449738,340.949005,262.576233,338.356934,261.798218zM341.768127,259.260071C342.788452,258.239746,343.257172,256.256927,343.014221,253.988495C342.590393,250.03064,339.218689,248.810883,337.511963,251.997971C336.891327,253.157013,336.915161,256.888062,337.552307,258.302216C338.418396,260.22467,340.361969,260.666229,341.768127,259.260071z"/>
    <path transform="matrix(1,0,0,-1,0,0)" style="stroke:none;fill:#0000ff;fill-rule:evenodd" d="M350.567688,261.395264C348.264648,260.24762,347.200317,257.942535,347.388428,254.509949C347.601807,250.617081,349.706604,248.209091,352.896027,248.209091C355.368469,248.209091,357.56424,249.981461,358.288147,252.561539C360.013611,258.710938,355.51355,263.859894,350.567688,261.395264zM354.234558,259.712036C355.176636,259.224884,355.788452,257.829529,355.930481,255.843903C356.078186,253.779755,355.638519,251.881439,354.824127,251.067062C353.617004,249.859955,351.785278,250.024231,350.743378,251.433014C349.723877,252.811554,349.724854,257.448242,350.744965,258.822876C351.644531,260.035095,352.961121,260.370575,354.234558,259.712036z"/>
    <path transform="matrix(1,0,0,-1,0,0)" style="stroke:none;fill:#0000ff;fill-rule:evenodd" d="M253.15062,255.12796L253.15062,248.453537L256.178833,248.464386C260.592041,248.480194,262.154205,249.207458,263.452057,251.850494C264.851959,254.70134,264.187683,258.555511,261.969116,260.454498C260.635925,261.595703,259.76004,261.799377,256.178833,261.800995L253.15062,261.802368L253.15062,255.12796zM259.530975,259.47821C259.899567,259.287598,260.478058,258.647949,260.816498,258.056793C261.635864,256.625549,261.698242,253.726242,260.937439,252.434586C260.114136,251.036865,259.281433,250.582092,257.345123,250.472687L255.62262,250.375351L255.62262,255.100067L255.62262,259.824768L257.241699,259.824768C258.147064,259.824768,259.156189,259.671997,259.530975,259.47821z"/>
    <path transform="matrix(1,0,0,-1,0,0)" style="stroke:none;fill:#0000ff;fill-rule:evenodd" d="M284.297882,255.12796L284.297882,248.453552L285.286682,248.453552L286.275482,248.453552L286.279907,253.335754L286.284363,258.217987L289.178772,253.335754L292.073212,248.453552L293.253174,248.453552L294.433105,248.453552L294.433105,255.12796L294.433105,261.802368L293.444305,261.802368L292.455505,261.802368L292.452271,257.290985L292.449066,252.779572L289.794861,257.278198L287.140686,261.776855L285.719299,261.789612L284.297882,261.802368L284.297882,255.12796z"/>
    <path transform="matrix(1,0,0,-1,0,0)" style="stroke:none;fill:#0000ff;fill-rule:evenodd" d="M308.770752,260.824402L308.770752,259.846436L310.562927,259.773804L312.355164,259.701172L312.42157,254.077362L312.488037,248.453537L313.714752,248.453537L314.941467,248.453537L315.007904,254.077362L315.074341,259.701172L316.866547,259.773804L318.658752,259.846436L318.658752,260.824402L318.658752,261.802368L313.714752,261.802368L308.770752,261.802368L308.770752,260.824402z"/>
    <path transform="matrix(1,0,0,-1,0,0)" style="stroke:none;fill:#0000ff;fill-rule:evenodd" d="M325.085968,255.12796L325.085968,248.453537L329.164795,248.453537L333.243591,248.453537L333.243591,249.565948L333.243591,250.678345L330.400787,250.678345L327.557983,250.678345L327.557983,256.240356L327.557983,261.802368L326.32196,261.802368L325.085968,261.802368L325.085968,255.12796z"/>
    <path transform="matrix(1,0,0,-1,0,0)" style="stroke:none;fill:#0000ff;fill-rule:evenodd" d="M360.930054,255.12796L360.930054,248.453537L362.166046,248.453537L363.402039,248.453537L363.402039,250.194885C363.402039,251.900452,363.427307,251.969574,364.62973,253.557968L365.857422,255.179688L366.435516,253.856018C366.753479,253.128006,367.389282,251.614624,367.84848,250.49295L368.68335,248.453537L369.997925,248.453537C370.720917,248.453537,371.312469,248.514374,371.312469,248.588715C371.312469,248.663055,370.533783,250.612335,369.582062,252.920441C368.630371,255.228516,367.851685,257.243347,367.851685,257.397797C367.851685,257.552246,368.274139,258.244934,368.790497,258.937103C369.306854,259.629272,369.981873,260.557098,370.290527,260.998962L370.851746,261.802368L369.617065,261.802368L368.382446,261.802368L365.892242,258.429169L363.402039,255.055954L363.402039,258.429169L363.402039,261.802368L362.166046,261.802368L360.930054,261.802368L360.930054,255.12796z"/>
    <path transform="matrix(1,0,0,-1,0,0)" style="stroke:none;fill:#0000ff;fill-rule:evenodd" d="M270.733215,237.714783C266.803589,236.438599,265.429962,230.109863,268.240479,226.230057C269.298981,224.768814,270.76825,224.143036,272.832031,224.274445C274.831818,224.401794,276.142517,225.272568,277.22702,227.19429C277.94342,228.463806,277.994263,228.717697,277.994263,231.025909C277.994263,233.020874,277.893951,233.71257,277.474396,234.610306C276.190491,237.357483,273.478577,238.606369,270.733215,237.714783zM273.536194,235.742188C274.741577,235.238541,275.221161,234.153046,275.346893,231.643906C275.523621,228.116089,274.754547,226.551346,272.708984,226.276978C271.388641,226.099884,270.560974,226.64389,269.909241,228.117203C269.493713,229.056625,269.427673,229.622421,269.515015,231.495361C269.637054,234.111847,270.097107,235.219803,271.274048,235.731689C272.278687,236.16864,272.512939,236.169724,273.536194,235.742188z"/>
    <path transform="matrix(1,0,0,-1,0,0)" style="stroke:none;fill:#0000ff;fill-rule:evenodd" d="M239.307388,231.149506L239.307388,224.475082L240.543396,224.475082L241.779388,224.475082L241.779388,231.149506L241.779388,237.823914L240.543396,237.823914L239.307388,237.823914L239.307388,231.149506z"/>
    <path transform="matrix(1,0,0,-1,0,0)" style="stroke:none;fill:#0000ff;fill-rule:evenodd" d="M244.745789,231.149506L244.745789,224.475082L245.734589,224.475082L246.723404,224.475082L246.727234,229.233704L246.731079,233.99231L249.51767,229.295502L252.304276,224.598694L253.592651,224.523972L254.881012,224.449249L254.881012,231.136581L254.881012,237.823914L253.892212,237.823914L252.903412,237.823914L252.899857,233.188904L252.896301,228.553894L250.133804,233.188904L247.371307,237.823914L246.058563,237.823914L244.745789,237.823914L244.745789,231.149506z"/>
    <path transform="matrix(1,0,0,-1,0,0)" style="stroke:none;fill:#0000ff;fill-rule:evenodd" d="M256.364227,236.711517L256.364227,235.599121L258.094635,235.599121L259.825012,235.599121L259.825012,230.037109L259.825012,224.475082L261.184631,224.475082L262.54425,224.475082L262.54425,230.037109L262.54425,235.599121L264.274658,235.599121L266.005035,235.599121L266.005035,236.711517L266.005035,237.823914L261.184631,237.823914L256.364227,237.823914L256.364227,236.711517z"/>
    <path transform="matrix(1,0,0,-1,0,0)" style="stroke:none;fill:#0000ff;fill-rule:evenodd" d="M285.286682,231.149506L285.286682,224.475082L289.081726,224.475082C292.615723,224.475082,292.93457,224.513687,293.716736,225.036224C294.686279,225.683914,295.420959,226.988464,295.421509,228.063354C295.422058,229.107559,294.644043,230.441864,293.776489,230.884674L293.043823,231.258636L294.016968,232.184387C294.963257,233.084564,294.987,233.148056,294.876221,234.483688C294.786438,235.566666,294.612793,236.013321,294.055542,236.59494C293.086792,237.60611,292.103851,237.820938,288.438477,237.82254L285.286682,237.823914L285.286682,231.149506zM291.544739,235.562103C292.272644,235.17897,292.447266,234.872238,292.451721,233.968811C292.457764,232.742096,291.727539,232.284683,289.59082,232.176788L287.758698,232.084259L287.758698,233.965286L287.758698,235.846313L289.381744,235.846313C290.274414,235.846313,291.247772,235.718414,291.544739,235.562103zM292.34314,229.55394C292.676849,229.220215,292.94989,228.658966,292.94989,228.306702C292.94989,227.954437,292.676849,227.393188,292.34314,227.059448C291.7995,226.515793,291.529541,226.452698,289.747528,226.452698L287.758698,226.452698L287.758698,228.306702L287.758698,230.160706L289.747528,230.160706C291.529541,230.160706,291.7995,230.097595,292.34314,229.55394z"/>
    <path transform="matrix(1,0,0,-1,0,0)" style="stroke:none;fill:#0000ff;fill-rule:evenodd" d="M297.646729,231.149506L297.646729,224.475082L301.972717,224.475082L306.298737,224.475082L306.298737,225.463898L306.298737,226.452698L303.20874,226.452698L300.118713,226.452698L300.118713,228.306702L300.118713,230.160706L302.590729,230.160706L305.062744,230.160706L305.062744,231.149506L305.062744,232.138306L302.590729,232.138306L300.118713,232.138306L300.118713,233.99231L300.118713,235.846313L303.20874,235.846313L306.298737,235.846313L306.298737,236.835114L306.298737,237.823914L301.972717,237.823914L297.646729,237.823914L297.646729,231.149506z"/>
    <path transform="matrix(1,0,0,-1,0,0)" style="stroke:none;fill:#0000ff;fill-rule:evenodd" d="M309.199829,231.329849C308.012115,227.758102,307.040344,224.74823,307.040344,224.64122C307.040344,224.53421,307.504456,224.480865,308.071716,224.522675C309.090942,224.597794,309.108704,224.61554,309.578247,226.028229L310.053345,227.457748L312.667358,227.387817L315.281311,227.317902L315.754639,225.896484L316.227966,224.475082L317.547455,224.475082L318.866943,224.475082L316.640503,231.149506L314.414063,237.823914L312.886719,237.823914L311.359375,237.823914L309.199829,231.329849zM314.34848,230.111099C314.476074,229.709213,314.306641,229.66629,312.592529,229.66629C311.177765,229.66629,310.724976,229.744858,310.811523,229.975296C310.875366,230.145248,311.302002,231.429779,311.759583,232.829819L312.591553,235.375336L313.399445,232.965622C313.84375,231.640274,314.270844,230.355743,314.34848,230.111099z"/>
    <path transform="matrix(1,0,0,-1,0,0)" style="stroke:none;fill:#0000ff;fill-rule:evenodd" d="M320.38916,231.149506L320.38916,224.475082L321.373322,224.475082L322.357483,224.475082L322.42392,230.098907C322.479797,234.827515,322.537231,235.584991,322.784729,234.857513C322.946655,234.381653,323.759705,231.850937,324.591492,229.233704C326.077148,224.559021,326.115967,224.475082,326.790344,224.475082C327.468567,224.475082,327.49765,224.541382,329.186035,229.929291L330.895203,235.383484L330.9617,229.929291L331.028259,224.475082L332.259521,224.475082L333.490784,224.475082L333.490784,231.159897L333.490784,237.844711L331.603821,237.772522L329.716858,237.700317L328.452026,233.687332C327.756348,231.480194,327.127777,229.672546,327.055176,229.670319C326.982574,229.668106,326.318909,231.50177,325.580383,233.745117L324.237579,237.823914L322.313354,237.823914L320.38916,237.823914L320.38916,231.149506z"/>
    <path transform="matrix(1,0,0,-1,0,0)" style="stroke:none;fill:#0000ff;fill-rule:evenodd" d="M340.289825,237.514923C340.349854,237.344971,341.017395,234.925491,341.773315,232.138306C342.529236,229.35112,343.314026,226.486679,343.517365,225.772888L343.887024,224.475082L345.184113,224.475082L346.481201,224.475082L347.567932,229.048294C348.165588,231.563568,348.727814,233.621506,348.81723,233.621506C348.906677,233.621506,349.527222,231.558838,350.196228,229.037811L351.412659,224.454102L352.75061,224.526398L354.088623,224.598694L355.778687,230.902298C356.708252,234.369293,357.468872,237.351364,357.468994,237.529129C357.469177,237.755905,357.160767,237.829666,356.435364,237.776337L355.401428,237.700317L354.223206,233.16037C353.575134,230.663391,353.001556,228.577011,352.948486,228.523987C352.895477,228.470947,352.436707,229.957718,351.929077,231.827927C351.421387,233.698135,350.839386,235.812317,350.635681,236.526123L350.26535,237.823914L349.058502,237.823914C347.660828,237.823914,347.966675,238.469727,346.454803,232.325882C345.928162,230.185699,345.42157,228.572723,345.329102,228.74147C345.187897,228.999115,344.577026,231.240356,343.106384,236.896912L342.865356,237.823914L341.523041,237.823914C340.555786,237.823914,340.211212,237.737579,340.289825,237.514923z"/>
    <path transform="matrix(1,0,0,-1,0,0)" style="stroke:none;fill:#0000ff;fill-rule:evenodd" d="M359.199646,231.149506L359.199646,224.475082L360.435669,224.475082L361.671631,224.475082L361.671631,231.149506L361.671631,237.823914L360.435669,237.823914L359.199646,237.823914L359.199646,231.149506z"/>
    <path transform="matrix(1,0,0,-1,0,0)" style="stroke:none;fill:#0000ff;fill-rule:evenodd" d="M363.154846,236.711517L363.154846,235.599121L364.885254,235.599121L366.615662,235.599121L366.615662,230.037109L366.615662,224.475082L367.975281,224.475082L369.334869,224.475082L369.334869,230.037109L369.334869,235.599121L371.065277,235.599121L372.795654,235.599121L372.795654,236.711517L372.795654,237.823914L367.975281,237.823914L363.154846,237.823914L363.154846,236.711517z"/>
    <path transform="matrix(1,0,0,-1,0,0)" style="stroke:none;fill:#0000ff;fill-rule:evenodd" d="M374.27887,231.149506L374.27887,224.475082L375.514893,224.475082L376.750885,224.475082L376.750885,227.317902L376.750885,230.160706L379.2229,230.160706L381.694885,230.160706L381.694885,227.317902L381.694885,224.475082L382.930908,224.475082L384.166901,224.475082L384.166901,231.149506L384.166901,237.823914L382.930908,237.823914L381.694885,237.823914L381.694885,235.104706L381.694885,232.385498L379.2229,232.385498L376.750885,232.385498L376.750885,235.104706L376.750885,237.823914L375.514893,237.823914L374.27887,237.823914L374.27887,231.149506z"/>
    <path transform="matrix(1,0,0,-1,0,0)" style="stroke:none;fill:#0000ff;fill-rule:evenodd" d="M335.222961,213.451675C333.19574,212.572571,331.986206,210.512009,331.814117,207.64444C331.566528,203.518799,333.388031,200.537125,336.398071,200.140869C337.897919,199.94342,339.068573,200.295135,340.037598,201.234375L340.807281,201.980377L341.120239,201.114899C341.361267,200.448349,341.571564,200.249435,342.035217,200.249435L342.637207,200.249435L342.637207,203.710236L342.637207,207.171051L340.041626,207.171051L337.445984,207.171051L337.445984,206.182251L337.445984,205.193451L338.805603,205.193451C340.011383,205.193451,340.165222,205.136124,340.165222,204.686768C340.165222,203.275696,338.94458,202.227036,337.302063,202.227036C335.373047,202.227036,334.342651,203.967041,334.374329,207.171051C334.405914,210.363693,335.65802,212.037369,337.816803,211.772507C338.846375,211.646179,340.165222,210.5159,340.165222,209.759827C340.165222,209.46431,340.376282,209.422333,341.21582,209.550934C341.79364,209.639435,342.311646,209.750854,342.366882,209.798538C342.42215,209.846207,342.270569,210.32164,342.030029,210.855042C341.512573,212.002625,340.318176,213.216476,339.345703,213.583099C338.352295,213.957642,336.233978,213.890106,335.222961,213.451675z"/>
    <path transform="matrix(1,0,0,-1,0,0)" style="stroke:none;fill:#0000ff;fill-rule:evenodd" d="M243.756989,206.923843L243.756989,200.249435L244.992996,200.249435L246.229004,200.249435L246.229004,202.968643L246.229004,205.687851L247.897614,205.687408L249.566208,205.686981L250.577225,203.030014L251.588242,200.373032L252.863831,200.298309C253.565399,200.257217,254.13942,200.286301,254.13942,200.36293C254.13942,200.439575,253.641876,201.740051,253.033783,203.252884L251.928162,206.003494L252.926254,206.896271C255.067566,208.811646,254.572449,212.156555,251.984344,213.259323C251.428589,213.49614,250.069199,213.598267,247.472931,213.598267L243.756989,213.598267L243.756989,206.923843zM251.095276,211.08316C251.705551,210.509842,251.845825,209.449509,251.417297,208.648819C251.092468,208.041885,249.707397,207.668549,247.774002,207.666824L246.229004,207.665451L246.229004,209.643051L246.229004,211.620667L248.376068,211.620667C250.240295,211.620667,250.598511,211.54985,251.095276,211.08316z"/>
    <path transform="matrix(1,0,0,-1,0,0)" style="stroke:none;fill:#0000ff;fill-rule:evenodd" d="M256.61142,206.923843L256.61142,200.249435L260.937439,200.249435L265.263428,200.249435L265.263428,201.361832L265.263428,202.474243L262.173431,202.474243L259.083435,202.474243L259.083435,204.328247L259.083435,206.182251L261.55542,206.182251L264.027435,206.182251L264.027435,207.171051L264.027435,208.159851L261.55542,208.159851L259.083435,208.159851L259.083435,209.890259L259.083435,211.620667L262.173431,211.620667L265.263428,211.620667L265.263428,212.609467L265.263428,213.598267L260.937439,213.598267L256.61142,213.598267L256.61142,206.923843z"/>
    <path transform="matrix(1,0,0,-1,0,0)" style="stroke:none;fill:#0000ff;fill-rule:evenodd" d="M267.488251,206.93425L267.488251,200.249435L268.472412,200.249435L269.456573,200.249435L269.52301,205.791229L269.589447,211.333038L271.325073,205.853027C272.979156,200.630478,273.091309,200.369461,273.712952,200.296967C274.352509,200.222382,274.392334,200.306549,275.760742,204.622986C276.52832,207.044128,277.363892,209.636871,277.617554,210.384659L278.078857,211.744263L278.098358,205.996841L278.117859,200.249435L279.353882,200.249435L280.589874,200.249435L280.589874,206.923843L280.589874,213.598267L278.632568,213.598267L276.675293,213.598267L275.37677,209.520462C274.662567,207.277679,274.028625,205.492294,273.967957,205.552948C273.907288,205.613617,273.280334,207.420807,272.574707,209.568954L271.291779,213.47467L269.390015,213.54686L267.488251,213.619064L267.488251,206.93425z"/>
    <path transform="matrix(1,0,0,-1,0,0)" style="stroke:none;fill:#0000ff;fill-rule:evenodd" d="M286.395447,213.301147C286.164917,212.688797,282.073059,200.383499,282.073059,200.302475C282.073059,200.25766,282.545837,200.255219,283.123688,200.297028C284.167023,200.372513,284.177917,200.383286,284.699249,201.856232L285.224213,203.339447L287.758698,203.339447L290.293182,203.339447L290.818115,201.856232L291.343079,200.373032L292.6409,200.298309C293.354675,200.257217,293.935211,200.312836,293.930969,200.421921C293.926697,200.530991,292.939758,203.512482,291.737671,207.047455L289.552155,213.47467L288.034241,213.54834C286.961548,213.600403,286.480835,213.527893,286.395447,213.301147zM288.71106,208.345245C289.14447,206.95166,289.496826,205.728012,289.49408,205.626053C289.491333,205.524078,288.664612,205.440643,287.65686,205.440643L285.824677,205.440643L286.723022,208.159851C287.217102,209.655411,287.68927,210.879059,287.772217,210.879059C287.855194,210.879059,288.277649,209.738846,288.71106,208.345245z"/>
    <path transform="matrix(1,0,0,-1,0,0)" style="stroke:none;fill:#0000ff;fill-rule:evenodd" d="M295.669128,206.910309L295.669128,200.222351L296.843323,200.297699L298.017517,200.373032L298.083374,206.985657L298.14917,213.598267L296.909149,213.598267L295.669128,213.598267L295.669128,206.910309z"/>
    <path transform="matrix(1,0,0,-1,0,0)" style="stroke:none;fill:#0000ff;fill-rule:evenodd" d="M300.860321,206.923843L300.860321,200.249435L301.843903,200.249435L302.827454,200.249435L302.894501,205.078262L302.961517,209.907089L305.805847,205.14006L308.650146,200.373032L309.822876,200.297699L310.995544,200.222351L310.995544,206.910309L310.995544,213.598267L310.012451,213.598267L309.029358,213.598267L308.961853,209.210449L308.894348,204.822647L306.3078,209.210449L303.721283,213.598267L302.290802,213.598267L300.860321,213.598267L300.860321,206.923843z"/>
    <path transform="matrix(1,0,0,-1,0,0)" style="stroke:none;fill:#0000ff;fill-rule:evenodd" d="M313.961945,206.923843L313.961945,200.249435L315.197937,200.249435L316.43396,200.249435L316.43396,206.923843L316.43396,213.598267L315.197937,213.598267L313.961945,213.598267L313.961945,206.923843z"/>
    <path transform="matrix(1,0,0,-1,0,0)" style="stroke:none;fill:#0000ff;fill-rule:evenodd" d="M319.40036,206.923843L319.40036,200.249435L320.38382,200.249435L321.367279,200.249435L321.434418,204.989868L321.501556,209.730286L324.306061,204.989868L327.110565,200.249435L328.323059,200.249435L329.535583,200.249435L329.535583,206.923843L329.535583,213.598267L328.552368,213.598267L327.569122,213.598267L327.50177,209.107941L327.434387,204.617615L324.772827,209.107941L322.111237,213.598267L320.755798,213.598267L319.40036,213.598267L319.40036,206.923843z"/>
    <path transform="matrix(1,0,0,-1,0,0)" style="stroke:none;fill:#0000ff;fill-rule:evenodd" d="M350.300415,206.923843L350.300415,200.249435L354.626434,200.249435L358.952454,200.249435L358.952454,201.361832L358.952454,202.474243L355.862427,202.474243L352.77243,202.474243L352.77243,204.328247L352.77243,206.182251L355.244446,206.182251L357.716431,206.182251L357.716431,207.171051L357.716431,208.159851L355.244446,208.159851L352.77243,208.159851L352.77243,209.890259L352.77243,211.620667L355.862427,211.620667L358.952454,211.620667L358.952454,212.609467L358.952454,213.598267L354.626434,213.598267L350.300415,213.598267L350.300415,206.923843z"/>
    <path transform="matrix(1,0,0,-1,0,0)" style="stroke:none;fill:#0000ff;fill-rule:evenodd" d="M359.787567,212.918457C359.981934,212.544571,360.985962,210.812729,362.018707,209.069916L363.896454,205.901169L363.896454,203.075302L363.896454,200.249435L365.132446,200.249435L366.368469,200.249435L366.368469,202.994461L366.368469,205.739471L368.569916,209.668869L370.771362,213.598267L369.58078,213.598267L368.390198,213.598267L366.973083,211.009979C366.193665,209.586426,365.46463,208.478134,365.353027,208.547119C365.241394,208.616119,364.522522,209.780838,363.755585,211.135406L362.361084,213.598267L360.897644,213.598267L359.434143,213.598267L359.787567,212.918457z"/>
    <path transform="matrix(1,0,0,-1,0,0)" style="stroke:none;fill:#0000ff;fill-rule:evenodd" d="M372.054077,206.923843L372.054077,200.249435L376.380066,200.249435L380.706085,200.249435L380.706085,201.361832L380.706085,202.474243L377.616089,202.474243L374.526062,202.474243L374.526062,204.328247L374.526062,206.182251L377.013,206.182251L379.499939,206.182251L379.423218,207.109253L379.346497,208.036255L376.936279,208.10701L374.526062,208.177765L374.526062,209.891602L374.526062,211.605438L377.554291,211.67485L380.582489,211.744263L380.65921,212.671265L380.735931,213.598267L376.39502,213.598267L372.054077,213.598267L372.054077,206.923843z"/>
</svg>
