<?xml version="1.0" encoding="UTF-8"?>
<svg xmlns="http://www.w3.org/2000/svg" xmlns:xlink="http://www.w3.org/1999/xlink" width="406.400mm" height="337.820mm" viewBox="69.849976 -441.960022 406.400024 337.820038">
    <rect transform="matrix(1,0,0,-1,101.599976,-135.889984)" style="stroke:#0000ff;stroke-width:0.05mm;fill:none" x="-31.75" y="-31.75" width="63.5" height="63.5"/>
    <rect transform="matrix(1,0,0,-1,170.179977,-135.889984)" style="stroke:#0000ff;stroke-width:0.05mm;fill:none" x="-31.75" y="-31.75" width="63.5" height="63.5"/>
    <rect transform="matrix(1,0,0,-1,101.599976,-204.469971)" style="stroke:#0000ff;stroke-width:0.05mm;fill:none" x="-31.75" y="-31.75" width="63.5" height="63.5"/>
    <rect transform="matrix(1,0,0,-1,170.179977,-204.469971)" style="stroke:#0000ff;stroke-width:0.05mm;fill:none" x="-31.75" y="-31.75" width="63.5" height="63.5"/>
    <rect transform="matrix(1,0,0,-1,238.759979,-204.469971)" style="stroke:#0000ff;stroke-width:0.05mm;fill:none" x="-31.75" y="-31.75" width="63.5" height="63.5"/>
    <rect transform="matrix(1,0,0,-1,307.339996,-204.469971)" style="stroke:#0000ff;stroke-width:0.05mm;fill:none" x="-31.75" y="-31.75" width="63.5" height="63.5"/>
    <rect transform="matrix(1,0,0,-1,375.919983,-204.469971)" style="stroke:#0000ff;stroke-width:0.05mm;fill:none" x="-31.75" y="-31.75" width="63.5" height="63.5"/>
    <rect transform="matrix(1,0,0,-1,444.5,-204.469971)" style="stroke:#0000ff;stroke-width:0.05mm;fill:none" x="-31.75" y="-31.75" width="63.5" height="63.5"/>
    <rect transform="matrix(1,0,0,-1,101.599976,-273.049988)" style="stroke:#0000ff;stroke-width:0.05mm;fill:none" x="-31.75" y="-31.75" width="63.5" height="63.5"/>
    <rect transform="matrix(1,0,0,-1,170.179977,-273.049988)" style="stroke:#0000ff;stroke-width:0.05mm;fill:none" x="-31.75" y="-31.75" width="63.5" height="63.5"/>
    <rect transform="matrix(1,0,0,-1,238.759979,-273.049988)" style="stroke:#0000ff;stroke-width:0.05mm;fill:none" x="-31.75" y="-31.75" width="63.5" height="63.5"/>
    <rect transform="matrix(1,0,0,-1,307.339996,-273.049988)" style="stroke:#0000ff;stroke-width:0.05mm;fill:none" x="-31.75" y="-31.75" width="63.5" height="63.5"/>
    <rect transform="matrix(1,0,0,-1,375.919983,-273.049988)" style="stroke:#0000ff;stroke-width:0.05mm;fill:none" x="-31.75" y="-31.75" width="63.5" height="63.5"/>
    <rect transform="matrix(1,0,0,-1,444.5,-273.049988)" style="stroke:#0000ff;stroke-width:0.05mm;fill:none" x="-31.75" y="-31.75" width="63.5" height="63.5"/>
    <rect transform="matrix(1,0,0,-1,101.599976,-341.630005)" style="stroke:#0000ff;stroke-width:0.05mm;fill:none" x="-31.75" y="-31.75" width="63.5" height="63.5"/>
    <rect transform="matrix(1,0,0,-1,170.179977,-341.630005)" style="stroke:#0000ff;stroke-width:0.05mm;fill:none" x="-31.75" y="-31.75" width="63.5" height="63.5"/>
    <rect transform="matrix(1,0,0,-1,238.759979,-341.630005)" style="stroke:#0000ff;stroke-width:0.05mm;fill:none" x="-31.75" y="-31.75" width="63.5" height="63.5"/>
    <rect transform="matrix(1,0,0,-1,307.339996,-341.630005)" style="stroke:#0000ff;stroke-width:0.05mm;fill:none" x="-31.75" y="-31.75" width="63.5" height="63.5"/>
    <rect transform="matrix(1,0,0,-1,375.919983,-341.630005)" style="stroke:#0000ff;stroke-width:0.05mm;fill:none" x="-31.75" y="-31.75" width="63.5" height="63.5"/>
    <rect transform="matrix(1,0,0,-1,444.5,-341.630005)" style="stroke:#0000ff;stroke-width:0.05mm;fill:none" x="-31.75" y="-31.75" width="63.5" height="63.5"/>
    <rect transform="matrix(1,0,0,-1,101.599976,-410.210022)" style="stroke:#0000ff;stroke-width:0.05mm;fill:none" x="-31.75" y="-31.75" width="63.5" height="63.5"/>
    <rect transform="matrix(1,0,0,-1,170.179977,-410.210022)" style="stroke:#0000ff;stroke-width:0.05mm;fill:none" x="-31.75" y="-31.75" width="63.5" height="63.5"/>
    <rect transform="matrix(1,0,0,-1,238.759979,-410.210022)" style="stroke:#0000ff;stroke-width:0.05mm;fill:none" x="-31.75" y="-31.75" width="63.5" height="63.5"/>
    <rect transform="matrix(1,0,0,-1,307.339996,-410.210022)" style="stroke:#0000ff;stroke-width:0.05mm;fill:none" x="-31.75" y="-31.75" width="63.5" height="63.5"/>
    <rect transform="matrix(1,0,0,-1,375.919983,-410.210022)" style="stroke:#0000ff;stroke-width:0.05mm;fill:none" x="-31.75" y="-31.75" width="63.5" height="63.5"/>
    <rect transform="matrix(1,0,0,-1,444.5,-410.210022)" style="stroke:#0000ff;stroke-width:0.05mm;fill:none" x="-31.75" y="-31.75" width="63.5" height="63.5"/>
    <path transform="matrix(1,0,0,-1,0,0)" style="stroke:none;fill:#ff0000;fill-rule:evenodd" d="M104.268448,132.649963L121.190567,157.093079L114.653214,157.093079L106.437881,144.625549C104.824814,142.172501,103.281326,139.67395,101.809708,137.133606L100.791885,138.927063C99.737862,140.746857,98.640251,142.540619,97.499649,144.307434L89.139786,157.093079L82.313126,157.093079L98.656631,132.649963L98.656631,114.68634L104.268448,114.68634L104.268448,132.649963z"/>
    <path transform="matrix(1,0,0,-1,0,0)" style="stroke:none;fill:#ff0000;fill-rule:evenodd" d="M127.00647,114.226563L126.557007,114.226563L126.449829,114.041016C126.054535,113.500679,125.525101,113.073059,124.913696,112.800293L124.913696,112.125977C125.424576,112.322304,125.89679,112.606956,126.30896,112.967041L126.30896,108.521484L127.00647,108.521484L127.00647,114.226563z"/>
    <path transform="matrix(1,0,0,-1,0,0)" style="stroke:none;fill:#ff0000;fill-rule:evenodd" d="M186.912659,119.690735L159.837219,119.690735L162.411682,122.670227L186.218323,152.088684L186.218323,157.093079L155.845276,157.093079L155.845276,152.088684L179.507385,152.088684L178.983215,151.541809C177.632019,150.099457,176.340027,148.602783,175.110413,147.055481L153.386536,119.893372L153.386536,114.68634L186.912659,114.68634L186.912659,119.690735z"/>
    <path transform="matrix(1,0,0,-1,0,0)" style="stroke:none;fill:#ff0000;fill-rule:evenodd" d="M195.586472,114.226563L195.137009,114.226563L195.029831,114.041016C194.634537,113.500679,194.105103,113.073059,193.493698,112.800293L193.493698,112.125977C194.004578,112.322304,194.476791,112.606956,194.888962,112.967041L194.888962,108.521484L195.586472,108.521484L195.586472,114.226563z"/>
    <path transform="matrix(1,0,0,-1,0,0)" style="stroke:none;fill:#ff0000;fill-rule:evenodd" d="M103.704971,182.569305C105.802132,182.649384,107.872231,183.070679,109.833878,183.81662C111.618416,184.479294,113.250748,185.495987,114.632462,186.805389C116.501701,188.624191,117.732315,190.998337,118.141006,193.574188C118.379074,195.206055,118.270012,196.86969,117.820938,198.456512C117.160538,200.667252,115.780212,202.593857,113.899307,203.930145C112.416466,205.000916,110.768135,205.821442,109.019913,206.3591C106.591263,207.116241,104.130112,207.764648,101.643692,208.30246L100.808975,208.495819C99.041092,208.890289,97.30085,209.399658,95.599258,210.020721C94.821243,210.294342,94.083389,210.67099,93.405411,211.140594C92.342415,211.960602,91.672562,213.18956,91.559464,214.527313C91.385368,216.245514,92.037598,217.944916,93.316544,219.105438C94.19014,219.942123,95.260437,220.545334,96.428604,220.859344C97.806335,221.237564,99.227707,221.433563,100.656387,221.442352C102.311584,221.517624,103.968941,221.347061,105.574112,220.936249C106.837379,220.617874,108.005127,219.998642,108.977432,219.131561C110.10006,218.070496,110.893364,216.708649,111.262589,215.20871C111.42691,214.589508,111.54274,213.95845,111.609024,213.321259L116.989395,213.726288C116.936035,215.511108,116.518906,217.266266,115.763565,218.884247C114.546646,221.473694,112.431343,223.53392,109.810684,224.682098C108.10228,225.448257,106.288651,225.954041,104.430313,226.182587C102.27951,226.465179,100.10128,226.468628,97.9496,226.192841C96.03186,225.948669,94.165306,225.399918,92.420547,224.567352C88.116394,222.558746,85.607147,217.994537,86.217422,213.284149C86.527756,210.942352,87.693825,208.798157,89.49086,207.264862C90.935555,206.049469,92.598488,205.120224,94.390762,204.526825C96.105553,203.938416,97.84761,203.432281,99.610733,203.010223L101.723526,202.496063C103.630035,202.050903,105.518875,201.533539,107.386124,200.945038C108.540962,200.572769,109.630775,200.022888,110.616348,199.315155C112.053604,198.255814,112.88752,196.564407,112.852676,194.779266C112.836044,192.733002,111.822662,190.823486,110.137344,189.662811C108.898972,188.827072,107.507614,188.244812,106.043106,187.949432C103.146927,187.348175,100.14817,187.46315,97.306534,188.284393C95.864471,188.712387,94.508965,189.390686,93.301895,190.2883C92.111572,191.200058,91.196533,192.42334,90.658096,193.822723C90.217194,194.956726,89.928078,196.143967,89.798233,197.353729L84.504532,196.890839C84.546959,193.499359,85.802803,190.234894,88.044327,187.689423C89.650513,185.924072,91.678688,184.595337,93.938614,183.82785C96.054245,183.113678,98.259872,182.701096,100.490616,182.602264C101.560913,182.538834,102.633621,182.527832,103.704971,182.569305z"/>
    <path transform="matrix(1,0,0,-1,0,0)" style="stroke:none;fill:#ff0000;fill-rule:evenodd" d="M127.00647,182.806549L126.557007,182.806549L126.449829,182.621002C126.054535,182.080673,125.525101,181.653046,124.913696,181.38028L124.913696,180.705963C125.424576,180.902298,125.89679,181.186935,126.30896,181.547028L126.30896,177.101471L127.00647,177.101471L127.00647,182.806549z"/>
    <path transform="matrix(1,0,0,-1,0,0)" style="stroke:none;fill:#ff0000;fill-rule:evenodd" d="M172.876282,220.668671L186.905823,220.668671L186.905823,225.673065L153.292786,225.673065L153.292786,220.668671L167.264465,220.668671L167.264465,183.266327L172.876282,183.266327L172.876282,220.668671z"/>
    <path transform="matrix(1,0,0,-1,0,0)" style="stroke:none;fill:#ff0000;fill-rule:evenodd" d="M195.586472,182.806549L195.137009,182.806549L195.029831,182.621002C194.634537,182.080673,194.105103,181.653046,193.493698,181.38028L193.493698,180.705963C194.004578,180.902298,194.476791,181.186935,194.888962,181.547028L194.888962,177.101471L195.586472,177.101471L195.586472,182.806549z"/>
    <path transform="matrix(1,0,0,-1,0,0)" style="stroke:none;fill:#ff0000;fill-rule:evenodd" d="M239.71434,182.55246C241.743073,182.572464,243.758896,182.879395,245.701645,183.464081C248.65741,184.365997,251.216049,186.250336,252.95433,188.805389C253.783691,190.112335,254.380539,191.552917,254.718491,193.063446C255.208725,195.213959,255.473816,197.409607,255.509506,199.61496C255.524673,200.133728,255.532166,200.653076,255.531967,201.172089L255.531967,225.673065L249.920151,225.673065L249.920151,201.200897C249.950623,199.190979,249.781815,197.182892,249.416245,195.206268C249.193649,193.962128,248.777283,192.76059,248.182358,191.645477C247.514709,190.471176,246.508484,189.52536,245.295151,188.93161C244.050766,188.326462,242.712708,187.937317,241.337875,187.780731C239.536194,187.536621,237.709351,187.544678,235.909897,187.804657C234.659546,187.996399,233.453125,188.408936,232.347153,189.022919C230.509781,190.035614,229.152527,191.740417,228.577377,193.758026C228.196457,195.153946,227.966553,196.586685,227.891586,198.031708C227.822113,199.086624,227.788635,200.143661,227.791245,201.200897L227.791245,225.673065L222.179428,225.673065L222.179428,201.172089C222.147522,198.719788,222.359497,196.270416,222.812241,193.860077C223.089859,192.380585,223.569702,190.94632,224.238266,189.597626C225.433914,187.29953,227.349045,185.455841,229.690903,184.348358C231.505493,183.495346,233.450409,182.952972,235.444565,182.743866C236.861435,182.57843,238.288361,182.514465,239.71434,182.55246z"/>
    <path transform="matrix(1,0,0,-1,0,0)" style="stroke:none;fill:#ff0000;fill-rule:evenodd" d="M264.166473,182.806549L263.71701,182.806549L263.609833,182.621002C263.214539,182.080673,262.685089,181.653046,262.0737,181.38028L262.0737,180.705963C262.584595,180.902298,263.056793,181.186935,263.468964,181.547028L263.468964,177.101471L264.166473,177.101471L264.166473,182.806549z"/>
    <path transform="matrix(1,0,0,-1,0,0)" style="stroke:none;fill:#ff0000;fill-rule:evenodd" d="M326.63443,225.673065L320.906891,225.673065L309.451813,194.865936C308.594727,192.584366,307.832306,190.268097,307.166656,187.923553L306.935699,188.740692C306.335632,190.80307,305.669769,192.846069,304.939362,194.865936L293.918121,225.673065L287.843658,225.673065L304.274078,183.266327L310.030426,183.266327L326.63443,225.673065z"/>
    <path transform="matrix(1,0,0,-1,0,0)" style="stroke:none;fill:#ff0000;fill-rule:evenodd" d="M332.74649,182.806549L332.297028,182.806549L332.18985,182.621002C331.794556,182.080673,331.265106,181.653046,330.653717,181.38028L330.653717,180.705963C331.164612,180.902298,331.63681,181.186935,332.048981,181.547028L332.048981,177.101471L332.74649,177.101471L332.74649,182.806549z"/>
    <path transform="matrix(1,0,0,-1,0,0)" style="stroke:none;fill:#ff0000;fill-rule:evenodd" d="M373.529877,216.104706C373.926208,217.579636,374.292358,219.063095,374.627777,220.552948L374.692963,220.272919C374.899506,219.447174,375.116516,218.623886,375.343842,217.80368L384.89682,183.266327L390.306244,183.266327L401.934662,225.673065L396.294037,225.673065L389.640717,198.424042L389.32309,197.140839C388.670135,194.50531,388.072083,191.856857,387.529144,189.196503L387.256195,190.968719C386.503418,195.436783,385.49353,199.857758,384.231537,204.209442L378.15683,225.673065L371.388031,225.673065L363.317474,197.035614C362.656433,194.428726,362.019958,191.81543,361.408295,189.196503L361.014252,191.35495C360.597382,193.538483,360.130798,195.712189,359.614838,197.874481L353.164154,225.673065L347.407806,225.673065L358.660248,183.266327L364.387787,183.266327L373.529877,216.104706z"/>
    <path transform="matrix(1,0,0,-1,0,0)" style="stroke:none;fill:#ff0000;fill-rule:evenodd" d="M401.326477,182.806549L400.877014,182.806549L400.769836,182.621002C400.374542,182.080673,399.845093,181.653046,399.233704,181.38028L399.233704,180.705963C399.744598,180.902298,400.216797,181.186935,400.628967,181.547028L400.628967,177.101471L401.326477,177.101471L401.326477,182.806549z"/>
    <path transform="matrix(1,0,0,-1,0,0)" style="stroke:none;fill:#ff0000;fill-rule:evenodd" d="M442.684845,198.048065C443.387238,199.091019,444.062439,200.152023,444.709747,201.22995L445.18338,200.477753C445.630188,199.775284,446.089355,199.081223,446.561066,198.395233L457.234894,183.266327L464.177521,183.266327L448.123077,205.684784L463.020294,225.673065L456.916779,225.673065L448.383331,214.420624L447.907013,213.794647C446.880951,212.439606,445.920166,211.036423,445.027863,209.589813L444.896027,209.8237C443.878845,211.53067,442.783875,213.190018,441.614532,214.7966L433.919952,225.673065L427.238068,225.673065L441.701447,205.366425L425.299835,183.266327L432.039825,183.266327L442.684845,198.048065z"/>
    <path transform="matrix(1,0,0,-1,0,0)" style="stroke:none;fill:#ff0000;fill-rule:evenodd" d="M469.906494,182.806549L469.457031,182.806549L469.349854,182.621002C468.954559,182.080673,468.42511,181.653046,467.813721,181.38028L467.813721,180.705963C468.324615,180.902298,468.796814,181.186935,469.208984,181.547028L469.208984,177.101471L469.906494,177.101471L469.906494,182.806549z"/>
    <path transform="matrix(1,0,0,-1,0,0)" style="stroke:none;fill:#ff0000;fill-rule:evenodd" d="M86.910049,287.94693L99.174942,251.846344L104.237198,251.846344L116.559952,287.339508L116.559952,251.846344L121.969376,251.846344L121.969376,294.253082L114.419327,294.253082L104.266251,264.747711C103.483826,262.492737,102.731232,260.225464,102.009903,257.950104L101.744766,258.805328C101.170059,260.618835,100.584854,262.421875,99.985001,264.227203L89.947403,294.253082L81.50087,294.253082L81.50087,251.846344L86.910049,251.846344L86.910049,287.94693z"/>
    <path transform="matrix(1,0,0,-1,0,0)" style="stroke:none;fill:#ff0000;fill-rule:evenodd" d="M127.00647,251.386566L126.557007,251.386566L126.449829,251.201019C126.054535,250.66069,125.525101,250.233063,124.913696,249.960297L124.913696,249.28598C125.424576,249.482315,125.89679,249.766953,126.30896,250.127045L126.30896,245.681488L127.00647,245.681488L127.00647,251.386566z"/>
    <path transform="matrix(1,0,0,-1,0,0)" style="stroke:none;fill:#ff0000;fill-rule:evenodd" d="M158.835266,285.170074L181.108704,251.846344L186.865295,251.846344L186.865295,294.253082L181.484924,294.253082L181.484924,260.958405L159.211243,294.253082L153.454895,294.253082L153.454895,251.846344L158.835266,251.846344L158.835266,285.170074z"/>
    <path transform="matrix(1,0,0,-1,0,0)" style="stroke:none;fill:#ff0000;fill-rule:evenodd" d="M195.586472,251.386566L195.137009,251.386566L195.029831,251.201019C194.634537,250.66069,194.105103,250.233063,193.493698,249.960297L193.493698,249.28598C194.004578,249.482315,194.476791,249.766953,194.888962,250.127045L194.888962,245.681488L195.586472,245.681488L195.586472,251.386566z"/>
    <path transform="matrix(1,0,0,-1,0,0)" style="stroke:none;fill:#ff0000;fill-rule:evenodd" d="M239.573959,251.133453C243.853195,251.234085,247.996307,252.656174,251.435287,255.204742C253.591995,256.874207,255.344009,259.009094,256.560547,261.450104C257.997437,264.310272,258.851318,267.427582,259.07251,270.620758C259.351196,273.913574,259.055267,277.229858,258.197998,280.421295C257.472198,283.108246,256.222534,285.625214,254.520737,287.827545C251.813004,291.188263,248.04454,293.52951,243.832016,294.46817C241.500305,294.983246,239.102753,295.132904,236.725082,294.911774C234.351273,294.727417,232.029633,294.118896,229.87059,293.115143C225.540314,291.037903,222.157547,287.39801,220.402573,282.927399C219.573196,280.80014,219.036789,278.570007,218.80809,276.298248C218.587097,274.348969,218.54892,272.38327,218.694077,270.42691C219.006485,266.547943,220.278656,262.807831,222.396225,259.542877C225.373901,255.163605,230.03511,252.21698,235.268295,251.40567C236.691757,251.179764,238.133377,251.088623,239.573959,251.133453zM238.08812,255.942291C235.681396,256.018585,233.337921,256.732178,231.297104,258.010162C228.53183,259.779449,226.458389,262.445587,225.424545,265.561432C224.799637,267.470154,224.45787,269.460083,224.410141,271.467926C224.31662,273.934387,224.513947,276.40332,224.998032,278.823639C225.289566,280.267944,225.769089,281.667938,226.424301,282.987701C227.223511,284.576752,228.374496,285.962952,229.789536,287.04068C232.184677,288.961273,235.137451,290.055084,238.205795,290.158356C240.788788,290.311157,243.364624,289.753693,245.653305,288.546539C248.318344,287.118927,250.423904,284.833374,251.628647,282.060455C252.615387,279.79953,253.187317,277.379608,253.317123,274.916168C253.496704,272.401031,253.32373,269.873169,252.803207,267.405914C252.408768,265.55246,251.68869,263.783539,250.676498,262.181549C249.083664,259.7034,246.73143,257.807678,243.97142,256.77774C242.084366,256.115051,240.085083,255.831146,238.08812,255.942291z"/>
    <path transform="matrix(1,0,0,-1,0,0)" style="stroke:none;fill:#ff0000;fill-rule:evenodd" d="M264.166473,251.386566L263.71701,251.386566L263.609833,251.201019C263.214539,250.66069,262.685089,250.233063,262.0737,249.960297L262.0737,249.28598C262.584595,249.482315,263.056793,249.766953,263.468964,250.127045L263.468964,245.681488L264.166473,245.681488L264.166473,251.386566z"/>
    <path transform="matrix(1,0,0,-1,0,0)" style="stroke:none;fill:#ff0000;fill-rule:evenodd" d="M297.765533,269.086823L308.641998,269.086823C310.64325,269.064178,312.641785,269.240662,314.608063,269.613678C315.916748,269.860352,317.187256,270.278534,318.386627,270.85733C319.77774,271.533173,320.980469,272.542542,321.88736,273.795319C323.396729,275.784637,324.293823,278.170807,324.468903,280.661774C324.652039,282.60849,324.423706,284.57196,323.798737,286.424713C323.267914,287.977234,322.418213,289.401642,321.304352,290.606354C320.233093,291.716431,318.922211,292.566772,317.471832,293.092438C315.915894,293.638916,314.294373,293.975983,312.649567,294.094879C311.152679,294.209808,309.651581,294.262573,308.150299,294.253082L292.153717,294.253082L292.153717,251.846344L297.765533,251.846344L297.765533,269.086823zM297.765533,274.091217L297.765533,289.248688C301.529175,289.260162,305.317627,289.259674,309.080963,289.247223C310.469055,289.264343,311.856537,289.181885,313.232819,289.000397C314.920349,288.728912,316.42334,287.778595,317.392242,286.370514C318.190247,285.219208,318.649017,283.867126,318.716461,282.467926C318.82489,281.138428,318.636932,279.801208,318.166168,278.553131C317.481171,276.817932,316.063934,275.473969,314.29483,274.881989C312.921448,274.420319,311.487274,274.164459,310.038971,274.122711C309.602539,274.101257,309.165649,274.090729,308.728668,274.091217L297.765533,274.091217z"/>
    <path transform="matrix(1,0,0,-1,0,0)" style="stroke:none;fill:#ff0000;fill-rule:evenodd" d="M332.74649,251.386566L332.297028,251.386566L332.18985,251.201019C331.794556,250.66069,331.265106,250.233063,330.653717,249.960297L330.653717,249.28598C331.164612,249.482315,331.63681,249.766953,332.048981,250.127045L332.048981,245.681488L332.74649,245.681488L332.74649,251.386566z"/>
    <path transform="matrix(1,0,0,-1,0,0)" style="stroke:none;fill:#ff0000;fill-rule:evenodd" d="M396.815765,252.45401C394.970856,253.174637,393.199951,254.071869,391.527679,255.133209C390.879608,255.536118,390.241241,255.954437,389.613129,256.387848C390.40683,257.151062,391.136017,257.978577,391.793304,258.861969C393.330658,260.949432,394.456543,263.310455,395.110931,265.819C395.725952,268.18927,396.026855,270.630096,396.005951,273.078766C396.035187,276.047791,395.56485,279.00061,394.614594,281.813629C393.810425,284.209229,392.563812,286.43277,390.939545,288.368561C388.100708,291.623993,384.245422,293.82428,379.998627,294.612701C376.30954,295.313904,372.504395,295.087646,368.924408,293.954254C366.146881,293.067291,363.617432,291.537903,361.541595,289.490387C359.763916,287.672638,358.357086,285.526337,357.399506,283.171051C356.076904,279.962372,355.414063,276.520111,355.450531,273.049713C355.421417,270.075348,355.903015,267.118011,356.874359,264.306549C357.773926,261.692932,359.194977,259.289276,361.051361,257.241364C364.158569,253.939102,368.327942,251.8349,372.83017,251.296783C376.261169,250.854691,379.748047,251.221313,383.012054,252.36734C384.0625,252.746399,385.0802,253.210663,386.055023,253.755524C388.161316,252.078934,390.452393,250.648666,392.883636,249.492584C393.630249,249.143921,394.392212,248.828979,395.167084,248.548737L396.815765,252.45401zM374.999359,255.942291C372.799835,256.008484,370.647125,256.595093,368.718109,257.653961C365.851959,259.275116,363.65799,261.865845,362.531097,264.959869C361.825897,266.916168,361.411102,268.965088,361.299896,271.041656C361.140228,273.356201,361.254303,275.68158,361.63974,277.969391C361.920349,279.639832,362.442932,281.260468,363.19101,282.780182C365.226532,286.746918,369.085144,289.456055,373.507416,290.023346C375.600372,290.3255,377.733215,290.196045,379.774261,289.642975C383.662109,288.554199,386.855438,285.775146,388.470551,282.07486C389.456635,279.825378,390.028625,277.416443,390.159027,274.963776C390.32135,272.588654,390.179657,270.202667,389.737396,267.863434C389.396576,266.078888,388.770203,264.360931,387.882416,262.775787C387.188904,261.558228,386.308746,260.45697,385.274017,259.512115L384.873138,259.84317C382.949371,261.3367,380.773926,262.473907,378.449554,263.20108C378.056213,263.33017,377.660065,263.450378,377.261322,263.561676L375.901703,259.483063L376.627533,259.287018C378.336792,258.780731,379.963196,258.02829,381.455658,257.053375L380.785004,256.788727C378.932465,256.122559,376.965088,255.834747,374.999359,255.942291z"/>
    <path transform="matrix(1,0,0,-1,0,0)" style="stroke:none;fill:#ff0000;fill-rule:evenodd" d="M401.326477,251.386566L400.877014,251.386566L400.769836,251.201019C400.374542,250.66069,399.845093,250.233063,399.233704,249.960297L399.233704,249.28598C399.744598,249.482315,400.216797,249.766953,400.628967,250.127045L400.628967,245.681488L401.326477,245.681488L401.326477,251.386566z"/>
    <path transform="matrix(1,0,0,-1,0,0)" style="stroke:none;fill:#ff0000;fill-rule:evenodd" d="M433.531281,270.677643C435.877045,270.689789,438.217468,270.688812,440.563263,270.674713C441.434387,270.688019,442.304962,270.621246,443.163849,270.47525C444.816559,270.054901,446.303223,269.142883,447.426788,267.860016C448.497528,266.655151,449.484589,265.37854,450.381134,264.038971C451.147125,262.928589,451.894745,261.804688,452.622833,260.669098L458.23465,251.846344L465.292755,251.846344L457.916534,263.388336C456.606934,265.456482,455.042206,267.351593,453.259308,269.028961C452.391846,269.76004,451.436401,270.379639,450.41507,270.873444L449.874786,271.140533L450.625519,271.254303C452.394104,271.519897,454.11499,272.039948,455.73465,272.798248C459.366211,274.50061,461.720459,278.114197,461.810333,282.123932C461.904083,283.997192,461.568451,285.867218,460.829132,287.590973C460.290649,288.85611,459.523773,290.011292,458.566925,290.998688C457.348969,292.22287,455.8172,293.087891,454.139923,293.498688C452.375061,293.929932,450.568756,294.169373,448.752472,294.212799C448.07605,294.240265,447.398926,294.253693,446.721954,294.253082L427.919464,294.253082L427.919464,251.846344L433.531281,251.846344L433.531281,270.677643zM433.531281,275.537506L433.531281,289.567047L446.9534,289.567047C448.329803,289.590759,449.703064,289.427734,451.035675,289.082428C452.193512,288.79483,453.256012,288.208618,454.11673,287.382477C455.383453,286.151764,456.079346,284.447906,456.036407,282.682281C456.05365,280.618835,455.12674,278.661346,453.519562,277.367096C452.60022,276.685333,451.54245,276.213531,450.420929,275.985016C449.140656,275.715454,447.837524,275.569763,446.529327,275.549957L445.593781,275.537506L433.531281,275.537506z"/>
    <path transform="matrix(1,0,0,-1,0,0)" style="stroke:none;fill:#ff0000;fill-rule:evenodd" d="M469.906494,251.386566L469.457031,251.386566L469.349854,251.201019C468.954559,250.66069,468.42511,250.233063,467.813721,249.960297L467.813721,249.28598C468.324615,249.482315,468.796814,249.766953,469.208984,250.127045L469.208984,245.681488L469.906494,245.681488L469.906494,251.386566z"/>
    <path transform="matrix(1,0,0,-1,0,0)" style="stroke:none;fill:#ff0000;fill-rule:evenodd" d="M104.55751,319.72934C108.04821,319.897736,111.46846,320.772369,114.611465,322.300385C116.874344,323.397766,119.005112,324.74881,120.962784,326.327484L120.962784,342.063568L102.999161,342.03476L102.999161,337.059418L115.46669,337.059418L115.46669,329.162445C114.581261,328.410065,113.608582,327.767059,112.569473,327.247162C110.982979,326.415436,109.307129,325.766754,107.574112,325.313568C103.756653,324.348022,99.728622,324.653229,96.100235,326.182953C94.835953,326.698212,93.659012,327.406281,92.611465,328.28183C90.897858,329.762756,89.590317,331.656219,88.812393,333.783295C88.046165,335.903717,87.621376,338.132233,87.553848,340.385834C87.425049,342.695435,87.627876,345.011688,88.156143,347.263763C88.451576,348.503937,88.866096,349.712677,89.393936,350.873138C90.197495,352.594482,91.337616,354.137268,92.747208,355.410736C94.658028,357.002502,96.958633,358.055573,99.412247,358.461517C101.365768,358.800934,103.358986,358.846863,105.326065,358.597748C107.42868,358.332184,109.434937,357.558136,111.171036,356.342621C112.152344,355.630066,112.970825,354.716705,113.571915,353.663422C114.30069,352.378143,114.86898,351.00827,115.264053,349.584564L120.326309,350.973236C119.925812,352.610687,119.331772,354.194733,118.556778,355.691742C117.891617,356.989105,117.013596,358.165863,115.959366,359.172943C114.844528,360.202728,113.57235,361.047668,112.190811,361.675873C110.322609,362.530457,108.334557,363.093964,106.295792,363.346771C102.958252,363.773407,99.570274,363.565002,96.310196,362.732513C93.845375,362.10379,91.52755,360.998352,89.487686,359.478607C87.472549,357.908295,85.824722,355.91684,84.659317,353.643402C82.591766,349.633606,81.58931,345.159607,81.748184,340.65097C81.802322,337.228516,82.578545,333.855988,84.026016,330.754242C85.797379,326.922546,88.867897,323.840607,92.693008,322.055023C95.798569,320.571991,99.1866,319.773529,102.627579,319.713715C103.270859,319.695648,103.914627,319.700867,104.55751,319.72934z"/>
    <path transform="matrix(1,0,0,-1,0,0)" style="stroke:none;fill:#ff0000;fill-rule:evenodd" d="M127.00647,319.966583L126.557007,319.966583L126.449829,319.781036C126.054535,319.240692,125.525101,318.81308,124.913696,318.540314L124.913696,317.865997C125.424576,318.062317,125.89679,318.346985,126.30896,318.707062L126.30896,314.261505L127.00647,314.261505L127.00647,319.966583z"/>
    <path transform="matrix(1,0,0,-1,0,0)" style="stroke:none;fill:#ff0000;fill-rule:evenodd" d="M159.297913,340.414886L181.340149,340.414886L181.340149,320.426361L186.951965,320.426361L186.951965,362.833099L181.340149,362.833099L181.340149,345.419281L159.297913,345.419281L159.297913,362.833099L153.686096,362.833099L153.686096,320.426361L159.297913,320.426361L159.297913,340.414886z"/>
    <path transform="matrix(1,0,0,-1,0,0)" style="stroke:none;fill:#ff0000;fill-rule:evenodd" d="M195.586472,319.966583L195.137009,319.966583L195.029831,319.781036C194.634537,319.240692,194.105103,318.81308,193.493698,318.540314L193.493698,317.865997C194.004578,318.062317,194.476791,318.346985,194.888962,318.707062L194.888962,314.261505L195.586472,314.261505L195.586472,319.966583z"/>
    <path transform="matrix(1,0,0,-1,0,0)" style="stroke:none;fill:#ff0000;fill-rule:evenodd" d="M241.692368,362.833099L236.080551,362.833099L236.080551,320.426361L241.692368,320.426361L241.692368,362.833099z"/>
    <path transform="matrix(1,0,0,-1,0,0)" style="stroke:none;fill:#ff0000;fill-rule:evenodd" d="M264.166473,319.966583L263.71701,319.966583L263.609833,319.781036C263.214539,319.240692,262.685089,318.81308,262.0737,318.540314L262.0737,317.865997C262.584595,318.062317,263.056793,318.346985,263.468964,318.707062L263.468964,314.261505L264.166473,314.261505L264.166473,319.966583z"/>
    <path transform="matrix(1,0,0,-1,0,0)" style="stroke:none;fill:#ff0000;fill-rule:evenodd" d="M306.647614,319.727142C308.07309,319.787018,309.480438,320.070007,310.818268,320.565765C312.050842,321.015594,313.18457,321.700104,314.156647,322.58139C315.509613,323.858185,316.467529,325.496765,316.916412,327.302094C317.356812,329.048889,317.593018,330.840942,317.62027,332.642181C317.633881,333.072998,317.640656,333.50415,317.640533,333.93515L317.640533,362.833099L312.028717,362.833099L312.028717,333.617035C312.057953,332.15918,311.948975,330.701813,311.703278,329.264496C311.421844,327.46582,310.220093,325.943787,308.535797,325.252777C306.811462,324.552277,304.889343,324.517822,303.141022,325.156097C301.743103,325.705627,300.662659,326.850189,300.194489,328.277435C299.787476,329.476288,299.540649,330.723633,299.460358,331.987152C299.427979,332.375641,299.403717,332.764648,299.387604,333.154144L294.325592,332.460052C294.271027,330.797455,294.435211,329.134796,294.813873,327.514984C295.162537,325.988007,295.846558,324.557678,296.816315,323.327728C297.993286,321.899719,299.567078,320.852325,301.338776,320.317963C302.760406,319.891785,304.238556,319.684509,305.722565,319.703217L306.647614,319.727142z"/>
    <path transform="matrix(1,0,0,-1,0,0)" style="stroke:none;fill:#ff0000;fill-rule:evenodd" d="M332.74649,319.966583L332.297028,319.966583L332.18985,319.781036C331.794556,319.240692,331.265106,318.81308,330.653717,318.540314L330.653717,317.865997C331.164612,318.062317,331.63681,318.346985,332.048981,318.707062L332.048981,314.261505L332.74649,314.261505L332.74649,319.966583z"/>
    <path transform="matrix(1,0,0,-1,0,0)" style="stroke:none;fill:#ff0000;fill-rule:evenodd" d="M366.114105,335.121185L373.056488,341.890228L388.156342,320.426361L395.561615,320.426361L376.99057,345.650482L394.780609,362.833099L387.172699,362.833099L366.114105,341.803314L366.114105,362.833099L360.502289,362.833099L360.502289,320.426361L366.114105,320.426361L366.114105,335.121185z"/>
    <path transform="matrix(1,0,0,-1,0,0)" style="stroke:none;fill:#ff0000;fill-rule:evenodd" d="M401.326477,319.966583L400.877014,319.966583L400.769836,319.781036C400.374542,319.240692,399.845093,318.81308,399.233704,318.540314L399.233704,317.865997C399.744598,318.062317,400.216797,318.346985,400.628967,318.707062L400.628967,314.261505L401.326477,314.261505L401.326477,319.966583z"/>
    <path transform="matrix(1,0,0,-1,0,0)" style="stroke:none;fill:#ff0000;fill-rule:evenodd" d="M458.837677,325.430756L437.952423,325.430756L437.952423,362.833099L432.340607,362.833099L432.340607,320.426361L458.837677,320.426361L458.837677,325.430756z"/>
    <path transform="matrix(1,0,0,-1,0,0)" style="stroke:none;fill:#ff0000;fill-rule:evenodd" d="M469.906494,319.966583L469.457031,319.966583L469.349854,319.781036C468.954559,319.240692,468.42511,318.81308,467.813721,318.540314L467.813721,317.865997C468.324615,318.062317,468.796814,318.346985,469.208984,318.707062L469.208984,314.261505L469.906494,314.261505L469.906494,319.966583z"/>
    <path transform="matrix(1,0,0,-1,0,0)" style="stroke:none;fill:#ff0000;fill-rule:evenodd" d="M92.372696,401.849915L110.10463,401.849915L115.051163,389.006409L121.443985,389.006409L104.088028,431.413147L98.042374,431.413147L81.756485,389.006409L87.715469,389.006409L92.372696,401.849915zM93.992569,406.420471L98.649796,418.858948C99.620758,421.49527,100.384781,424.203247,100.934952,426.958313L101.061905,426.520569C101.849648,423.926056,102.727699,421.359497,103.694229,418.826233L108.369034,406.420471L93.992569,406.420471z"/>
    <path transform="matrix(1,0,0,-1,0,0)" style="stroke:none;fill:#ff0000;fill-rule:evenodd" d="M127.00647,388.54657L126.557007,388.54657L126.449829,388.361023C126.054535,387.820679,125.525101,387.393066,124.913696,387.1203L124.913696,386.445984C125.424576,386.642303,125.89679,386.926971,126.30896,387.287048L126.30896,382.841492L127.00647,382.841492L127.00647,388.54657z"/>
    <path transform="matrix(1,0,0,-1,0,0)" style="stroke:none;fill:#ff0000;fill-rule:evenodd" d="M171.92511,389.017639C173.648026,389.038116,175.365433,389.216003,177.055969,389.549133C178.591537,389.848297,180.069138,390.392456,181.431946,391.160706C182.844894,391.981262,184.024902,393.149414,184.85968,394.554016C186.695709,397.470764,187.248566,401.014465,186.388245,404.351868C185.608551,407.147125,183.653915,409.466736,181.031311,410.709045C180.313766,411.059448,179.567368,411.34729,178.800354,411.569397L179.52179,411.952698C180.830231,412.672058,181.969467,413.6633,182.862854,414.85968C184.814484,417.539917,185.273102,421.028015,184.080627,424.121643C183.542511,425.560852,182.711716,426.872711,181.640686,427.974426C180.200531,429.375885,178.403397,430.354858,176.444885,430.804749C174.55191,431.238342,172.613724,431.442596,170.671936,431.413147L154.762268,431.413147L154.762268,389.006409L170.932434,389.006409L171.92511,389.017639zM160.374084,413.594299L160.374084,426.408752C163.391129,426.419861,166.393112,426.419128,169.410461,426.406555C171.010498,426.421967,172.609329,426.311188,174.191956,426.075256C175.346558,425.927216,176.431961,425.441437,177.311584,424.679016C178.223526,423.800903,178.836197,422.658386,179.063049,421.412903C179.331314,420.077515,179.23407,418.694702,178.781555,417.409973C178.330826,416.235199,177.467072,415.264893,176.352356,414.681213C175.332733,414.154846,174.21788,413.838104,173.073792,413.749817C171.90062,413.636719,170.722351,413.584808,169.543762,413.594299L160.374084,413.594299zM160.374084,394.010803L160.374084,408.589905L170.180237,408.589905C171.85878,408.61908,173.53624,408.485565,175.189026,408.191223C176.483612,407.975677,177.6987,407.422821,178.711731,406.58844C179.919388,405.520111,180.695419,404.047668,180.894104,402.447571C181.08139,401.129425,180.945496,399.785522,180.498108,398.531555C180.024536,397.235229,179.145081,396.126556,177.99054,395.370422C176.678329,394.616577,175.20929,394.178284,173.698547,394.089905C172.77771,394.031708,171.855118,394.00531,170.932434,394.010803L160.374084,394.010803z"/>
    <path transform="matrix(1,0,0,-1,0,0)" style="stroke:none;fill:#ff0000;fill-rule:evenodd" d="M195.586472,388.54657L195.137009,388.54657L195.029831,388.361023C194.634537,387.820679,194.105103,387.393066,193.493698,387.1203L193.493698,386.445984C194.004578,386.642303,194.476791,386.926971,194.888962,387.287048L194.888962,382.841492L195.586472,382.841492L195.586472,388.54657z"/>
    <path transform="matrix(1,0,0,-1,0,0)" style="stroke:none;fill:#ff0000;fill-rule:evenodd" d="M241.223373,388.297424C243.512177,388.349915,245.771576,388.825989,247.886948,389.701477C251.310364,391.161804,254.130676,393.75058,255.878159,397.036682C256.795715,398.749786,257.495697,400.57074,257.961914,402.457336L252.350082,403.874817L252.19725,403.216125C251.786942,401.438354,251.070053,399.745483,250.078842,398.213684C248.278473,395.517914,245.416397,393.714966,242.207504,393.255188C238.934464,392.724121,235.578705,393.371185,232.737778,395.081116C230.770218,396.277435,229.20842,398.038757,228.256088,400.135315C227.323044,402.214355,226.723557,404.427429,226.479721,406.693176C226.15242,409.351379,226.189804,412.041656,226.590805,414.689758C226.860718,416.39209,227.317154,418.059479,227.951889,419.661926C229.598297,423.64389,233.214066,426.469971,237.475815,427.105774C239.425217,427.43927,241.418976,427.416107,243.360092,427.037415C246.084366,426.505188,248.460266,424.851715,249.905746,422.481995C250.676971,421.231812,251.284546,419.887817,251.713608,418.482971L257.23877,419.784485C256.606293,422.074402,255.532257,424.218628,254.077133,426.096497C251.793503,428.967834,248.572403,430.944702,244.978256,431.680725C240.843063,432.540985,236.548508,432.199432,232.601303,430.69635C230.343887,429.841034,228.279343,428.544403,226.528549,426.882385C224.600082,424.989349,223.104233,422.701263,222.143784,420.175354C221.169739,417.608582,220.618729,414.900818,220.512192,412.157532C220.284821,408.197113,220.855103,404.231293,222.189194,400.495422C222.938354,398.324402,224.047424,396.2948,225.469955,394.49176C227.67749,391.731598,230.747406,389.791107,234.187729,388.981262C236.491623,388.438324,238.858063,388.208313,241.223373,388.297424z"/>
    <path transform="matrix(1,0,0,-1,0,0)" style="stroke:none;fill:#ff0000;fill-rule:evenodd" d="M264.166473,388.54657L263.71701,388.54657L263.609833,388.361023C263.214539,387.820679,262.685089,387.393066,262.0737,387.1203L262.0737,386.445984C262.584595,386.642303,263.056793,386.926971,263.468964,387.287048L263.468964,382.841492L264.166473,382.841492L264.166473,388.54657z"/>
    <path transform="matrix(1,0,0,-1,0,0)" style="stroke:none;fill:#ff0000;fill-rule:evenodd" d="M306.923004,389.017883C309.149475,389.041168,311.364166,389.344635,313.514801,389.921204C315.260345,390.383728,316.905731,391.16394,318.368561,392.222717C320.497131,393.875916,322.194458,396.018616,323.316559,398.469055C324.554199,401.151978,325.317719,404.029144,325.573151,406.972717C325.860382,409.912933,325.774017,412.877716,325.316071,415.796204C324.92749,418.362366,324.097778,420.842041,322.863678,423.125305C321.612396,425.393036,319.841309,427.331787,317.695709,428.782532C315.781677,429.993439,313.627838,430.774292,311.382477,431.07135C309.358734,431.324707,307.320038,431.438904,305.28067,431.413147L290.67276,431.413147L290.67276,389.006409L305.975006,389.006409L306.923004,389.017883zM296.284332,394.010803L296.284332,426.408752C299.455292,426.425232,302.637848,426.424133,305.808746,426.405334C307.473114,426.412781,309.13504,426.276703,310.776031,425.998596C312.635223,425.671448,314.346588,424.772949,315.671539,423.428284C317.444397,421.678528,318.686859,419.463257,319.255524,417.038147C319.745697,414.903625,319.977661,412.718018,319.946442,410.528137C319.971863,408.379211,319.761871,406.233917,319.320221,404.130676C318.956726,402.448181,318.342712,400.829834,317.498688,399.329651C316.933289,398.325134,316.208862,397.418732,315.353668,396.645813C314.342987,395.806396,313.17569,395.176208,311.919342,394.791809C310.718536,394.430878,309.48114,394.20578,308.230133,394.120667C307.268158,394.044952,306.303497,394.008301,305.338531,394.010803L296.284332,394.010803z"/>
    <path transform="matrix(1,0,0,-1,0,0)" style="stroke:none;fill:#ff0000;fill-rule:evenodd" d="M332.74649,388.54657L332.297028,388.54657L332.18985,388.361023C331.794556,387.820679,331.265106,387.393066,330.653717,387.1203L330.653717,386.445984C331.164612,386.642303,331.63681,386.926971,332.048981,387.287048L332.048981,382.841492L332.74649,382.841492L332.74649,388.54657z"/>
    <path transform="matrix(1,0,0,-1,0,0)" style="stroke:none;fill:#ff0000;fill-rule:evenodd" d="M392.495209,394.010803L366.461273,394.010803L366.461273,408.445374L389.920746,408.445374L389.920746,413.420715L366.461273,413.420715L366.461273,426.408752L391.51181,426.408752L391.51181,431.413147L360.849457,431.413147L360.849457,389.006409L392.495209,389.006409L392.495209,394.010803z"/>
    <path transform="matrix(1,0,0,-1,0,0)" style="stroke:none;fill:#ff0000;fill-rule:evenodd" d="M401.326477,388.54657L400.877014,388.54657L400.769836,388.361023C400.374542,387.820679,399.845093,387.393066,399.233704,387.1203L399.233704,386.445984C399.744598,386.642303,400.216797,386.926971,400.628967,387.287048L400.628967,382.841492L401.326477,382.841492L401.326477,388.54657z"/>
    <path transform="matrix(1,0,0,-1,0,0)" style="stroke:none;fill:#ff0000;fill-rule:evenodd" d="M436.991974,408.27179L456.893585,408.27179L456.893585,413.27594L436.991974,413.27594L436.991974,426.408752L459.9888,426.408752L459.9888,431.413147L431.380157,431.413147L431.380157,389.006409L436.991974,389.006409L436.991974,408.27179z"/>
    <path transform="matrix(1,0,0,-1,0,0)" style="stroke:none;fill:#ff0000;fill-rule:evenodd" d="M469.906494,388.54657L469.457031,388.54657L469.349854,388.361023C468.954559,387.820679,468.42511,387.393066,467.813721,387.1203L467.813721,386.445984C468.324615,386.642303,468.796814,386.926971,469.208984,387.287048L469.208984,382.841492L469.906494,382.841492L469.906494,388.54657z"/>
</svg>
